<svg width="340" height="1598" viewBox="0 0 340 1598" fill="none" xmlns="http://www.w3.org/2000/svg">
<g filter="url(#filter0_d_632_470)">
<path d="M335.996 1573.32C335.996 1572.92 335.672 1572.6 335.276 1572.6H333.116C332.72 1572.6 332.396 1572.28 332.396 1571.88V1562.52C332.396 1562.12 332.072 1561.8 331.676 1561.8H329.516C329.12 1561.8 328.796 1562.12 328.796 1562.52V1571.88C328.796 1572.28 328.472 1572.6 328.076 1572.6H318.716C318.32 1572.6 317.996 1572.28 317.996 1571.88V1562.52C317.996 1562.12 317.672 1561.8 317.276 1561.8H315.116C314.72 1561.8 314.396 1562.12 314.396 1562.52V1575.48C314.396 1575.88 314.72 1576.2 315.116 1576.2H328.076C328.472 1576.2 328.796 1576.52 328.796 1576.92V1586.28C328.796 1586.68 329.12 1587 329.516 1587H331.676C332.072 1587 332.396 1586.68 332.396 1586.28V1576.92C332.396 1576.52 332.72 1576.2 333.116 1576.2H335.276C335.672 1576.2 335.996 1575.88 335.996 1575.48V1573.32Z" fill="url(#paint0_radial_632_470)"/>
<path d="M335.996 1573.32C335.996 1572.92 335.672 1572.6 335.276 1572.6H333.116C332.72 1572.6 332.396 1572.28 332.396 1571.88V1562.52C332.396 1562.12 332.072 1561.8 331.676 1561.8H329.516C329.12 1561.8 328.796 1562.12 328.796 1562.52V1571.88C328.796 1572.28 328.472 1572.6 328.076 1572.6H318.716C318.32 1572.6 317.996 1572.28 317.996 1571.88V1562.52C317.996 1562.12 317.672 1561.8 317.276 1561.8H315.116C314.72 1561.8 314.396 1562.12 314.396 1562.52V1575.48C314.396 1575.88 314.72 1576.2 315.116 1576.2H328.076C328.472 1576.2 328.796 1576.52 328.796 1576.92V1586.28C328.796 1586.68 329.12 1587 329.516 1587H331.676C332.072 1587 332.396 1586.68 332.396 1586.28V1576.92C332.396 1576.52 332.72 1576.2 333.116 1576.2H335.276C335.672 1576.2 335.996 1575.88 335.996 1575.48V1573.32Z" fill="url(#paint1_linear_632_470)" fill-opacity="0.2"/>
<path d="M335.996 1573.32C335.996 1572.92 335.672 1572.6 335.276 1572.6H333.116C332.72 1572.6 332.396 1572.28 332.396 1571.88V1562.52C332.396 1562.12 332.072 1561.8 331.676 1561.8H329.516C329.12 1561.8 328.796 1562.12 328.796 1562.52V1571.88C328.796 1572.28 328.472 1572.6 328.076 1572.6H318.716C318.32 1572.6 317.996 1572.28 317.996 1571.88V1562.52C317.996 1562.12 317.672 1561.8 317.276 1561.8H315.116C314.72 1561.8 314.396 1562.12 314.396 1562.52V1575.48C314.396 1575.88 314.72 1576.2 315.116 1576.2H328.076C328.472 1576.2 328.796 1576.52 328.796 1576.92V1586.28C328.796 1586.68 329.12 1587 329.516 1587H331.676C332.072 1587 332.396 1586.68 332.396 1586.28V1576.92C332.396 1576.52 332.72 1576.2 333.116 1576.2H335.276C335.672 1576.2 335.996 1575.88 335.996 1575.48V1573.32Z" fill="url(#paint2_radial_632_470)" fill-opacity="0.2"/>
<path d="M335.996 1573.32C335.996 1572.92 335.672 1572.6 335.276 1572.6H333.116C332.72 1572.6 332.396 1572.28 332.396 1571.88V1562.52C332.396 1562.12 332.072 1561.8 331.676 1561.8H329.516C329.12 1561.8 328.796 1562.12 328.796 1562.52V1571.88C328.796 1572.28 328.472 1572.6 328.076 1572.6H318.716C318.32 1572.6 317.996 1572.28 317.996 1571.88V1562.52C317.996 1562.12 317.672 1561.8 317.276 1561.8H315.116C314.72 1561.8 314.396 1562.12 314.396 1562.52V1575.48C314.396 1575.88 314.72 1576.2 315.116 1576.2H328.076C328.472 1576.2 328.796 1576.52 328.796 1576.92V1586.28C328.796 1586.68 329.12 1587 329.516 1587H331.676C332.072 1587 332.396 1586.68 332.396 1586.28V1576.92C332.396 1576.52 332.72 1576.2 333.116 1576.2H335.276C335.672 1576.2 335.996 1575.88 335.996 1575.48V1573.32Z" fill="url(#paint3_linear_632_470)" fill-opacity="0.2"/>
</g>
<g filter="url(#filter1_d_632_470)">
<path d="M18.4 1083.12C18.4 1082.72 18.076 1082.4 17.68 1082.4H13.72C13.324 1082.4 13 1082.08 13 1081.68V1061.52C13 1061.12 12.676 1060.8 12.28 1060.8H4.72C4.324 1060.8 4 1061.12 4 1061.52V1063.68C4 1064.08 4.324 1064.4 4.72 1064.4H8.68C9.076 1064.4 9.4 1064.72 9.4 1065.12V1081.68C9.4 1082.08 9.076 1082.4 8.68 1082.4H4.72C4.324 1082.4 4 1082.72 4 1083.12V1085.28C4 1085.68 4.324 1086 4.72 1086H17.68C18.076 1086 18.4 1085.68 18.4 1085.28V1083.12Z" fill="url(#paint4_radial_632_470)"/>
<path d="M18.4 1083.12C18.4 1082.72 18.076 1082.4 17.68 1082.4H13.72C13.324 1082.4 13 1082.08 13 1081.68V1061.52C13 1061.12 12.676 1060.8 12.28 1060.8H4.72C4.324 1060.8 4 1061.12 4 1061.52V1063.68C4 1064.08 4.324 1064.4 4.72 1064.4H8.68C9.076 1064.4 9.4 1064.72 9.4 1065.12V1081.68C9.4 1082.08 9.076 1082.4 8.68 1082.4H4.72C4.324 1082.4 4 1082.72 4 1083.12V1085.28C4 1085.68 4.324 1086 4.72 1086H17.68C18.076 1086 18.4 1085.68 18.4 1085.28V1083.12Z" fill="url(#paint5_linear_632_470)" fill-opacity="0.2"/>
<path d="M18.4 1083.12C18.4 1082.72 18.076 1082.4 17.68 1082.4H13.72C13.324 1082.4 13 1082.08 13 1081.68V1061.52C13 1061.12 12.676 1060.8 12.28 1060.8H4.72C4.324 1060.8 4 1061.12 4 1061.52V1063.68C4 1064.08 4.324 1064.4 4.72 1064.4H8.68C9.076 1064.4 9.4 1064.72 9.4 1065.12V1081.68C9.4 1082.08 9.076 1082.4 8.68 1082.4H4.72C4.324 1082.4 4 1082.72 4 1083.12V1085.28C4 1085.68 4.324 1086 4.72 1086H17.68C18.076 1086 18.4 1085.68 18.4 1085.28V1083.12Z" fill="url(#paint6_radial_632_470)" fill-opacity="0.2"/>
<path d="M18.4 1083.12C18.4 1082.72 18.076 1082.4 17.68 1082.4H13.72C13.324 1082.4 13 1082.08 13 1081.68V1061.52C13 1061.12 12.676 1060.8 12.28 1060.8H4.72C4.324 1060.8 4 1061.12 4 1061.52V1063.68C4 1064.08 4.324 1064.4 4.72 1064.4H8.68C9.076 1064.4 9.4 1064.72 9.4 1065.12V1081.68C9.4 1082.08 9.076 1082.4 8.68 1082.4H4.72C4.324 1082.4 4 1082.72 4 1083.12V1085.28C4 1085.68 4.324 1086 4.72 1086H17.68C18.076 1086 18.4 1085.68 18.4 1085.28V1083.12Z" fill="url(#paint7_linear_632_470)" fill-opacity="0.2"/>
</g>
<g filter="url(#filter2_d_632_470)">
<path d="M296.536 500.12C296.536 499.724 296.212 499.4 295.816 499.4H291.856C291.46 499.4 291.136 499.076 291.136 498.68V478.52C291.136 478.124 290.812 477.8 290.416 477.8H282.856C282.46 477.8 282.136 478.124 282.136 478.52V480.68C282.136 481.076 282.46 481.4 282.856 481.4H286.816C287.212 481.4 287.536 481.724 287.536 482.12V498.68C287.536 499.076 287.212 499.4 286.816 499.4H282.856C282.46 499.4 282.136 499.724 282.136 500.12V502.28C282.136 502.676 282.46 503 282.856 503H295.816C296.212 503 296.536 502.676 296.536 502.28V500.12ZM324.256 489.32C324.256 488.924 323.932 488.6 323.536 488.6H321.376C320.98 488.6 320.656 488.276 320.656 487.88V478.52C320.656 478.124 320.332 477.8 319.936 477.8H317.776C317.38 477.8 317.056 478.124 317.056 478.52V487.88C317.056 488.276 316.732 488.6 316.336 488.6H306.976C306.58 488.6 306.256 488.276 306.256 487.88V478.52C306.256 478.124 305.932 477.8 305.536 477.8H303.376C302.98 477.8 302.656 478.124 302.656 478.52V491.48C302.656 491.876 302.98 492.2 303.376 492.2H316.336C316.732 492.2 317.056 492.524 317.056 492.92V502.28C317.056 502.676 317.38 503 317.776 503H319.936C320.332 503 320.656 502.676 320.656 502.28V492.92C320.656 492.524 320.98 492.2 321.376 492.2H323.536C323.932 492.2 324.256 491.876 324.256 491.48V489.32Z" fill="url(#paint8_radial_632_470)"/>
<path d="M296.536 500.12C296.536 499.724 296.212 499.4 295.816 499.4H291.856C291.46 499.4 291.136 499.076 291.136 498.68V478.52C291.136 478.124 290.812 477.8 290.416 477.8H282.856C282.46 477.8 282.136 478.124 282.136 478.52V480.68C282.136 481.076 282.46 481.4 282.856 481.4H286.816C287.212 481.4 287.536 481.724 287.536 482.12V498.68C287.536 499.076 287.212 499.4 286.816 499.4H282.856C282.46 499.4 282.136 499.724 282.136 500.12V502.28C282.136 502.676 282.46 503 282.856 503H295.816C296.212 503 296.536 502.676 296.536 502.28V500.12ZM324.256 489.32C324.256 488.924 323.932 488.6 323.536 488.6H321.376C320.98 488.6 320.656 488.276 320.656 487.88V478.52C320.656 478.124 320.332 477.8 319.936 477.8H317.776C317.38 477.8 317.056 478.124 317.056 478.52V487.88C317.056 488.276 316.732 488.6 316.336 488.6H306.976C306.58 488.6 306.256 488.276 306.256 487.88V478.52C306.256 478.124 305.932 477.8 305.536 477.8H303.376C302.98 477.8 302.656 478.124 302.656 478.52V491.48C302.656 491.876 302.98 492.2 303.376 492.2H316.336C316.732 492.2 317.056 492.524 317.056 492.92V502.28C317.056 502.676 317.38 503 317.776 503H319.936C320.332 503 320.656 502.676 320.656 502.28V492.92C320.656 492.524 320.98 492.2 321.376 492.2H323.536C323.932 492.2 324.256 491.876 324.256 491.48V489.32Z" fill="url(#paint9_linear_632_470)" fill-opacity="0.2"/>
<path d="M296.536 500.12C296.536 499.724 296.212 499.4 295.816 499.4H291.856C291.46 499.4 291.136 499.076 291.136 498.68V478.52C291.136 478.124 290.812 477.8 290.416 477.8H282.856C282.46 477.8 282.136 478.124 282.136 478.52V480.68C282.136 481.076 282.46 481.4 282.856 481.4H286.816C287.212 481.4 287.536 481.724 287.536 482.12V498.68C287.536 499.076 287.212 499.4 286.816 499.4H282.856C282.46 499.4 282.136 499.724 282.136 500.12V502.28C282.136 502.676 282.46 503 282.856 503H295.816C296.212 503 296.536 502.676 296.536 502.28V500.12ZM324.256 489.32C324.256 488.924 323.932 488.6 323.536 488.6H321.376C320.98 488.6 320.656 488.276 320.656 487.88V478.52C320.656 478.124 320.332 477.8 319.936 477.8H317.776C317.38 477.8 317.056 478.124 317.056 478.52V487.88C317.056 488.276 316.732 488.6 316.336 488.6H306.976C306.58 488.6 306.256 488.276 306.256 487.88V478.52C306.256 478.124 305.932 477.8 305.536 477.8H303.376C302.98 477.8 302.656 478.124 302.656 478.52V491.48C302.656 491.876 302.98 492.2 303.376 492.2H316.336C316.732 492.2 317.056 492.524 317.056 492.92V502.28C317.056 502.676 317.38 503 317.776 503H319.936C320.332 503 320.656 502.676 320.656 502.28V492.92C320.656 492.524 320.98 492.2 321.376 492.2H323.536C323.932 492.2 324.256 491.876 324.256 491.48V489.32Z" fill="url(#paint10_radial_632_470)" fill-opacity="0.2"/>
<path d="M296.536 500.12C296.536 499.724 296.212 499.4 295.816 499.4H291.856C291.46 499.4 291.136 499.076 291.136 498.68V478.52C291.136 478.124 290.812 477.8 290.416 477.8H282.856C282.46 477.8 282.136 478.124 282.136 478.52V480.68C282.136 481.076 282.46 481.4 282.856 481.4H286.816C287.212 481.4 287.536 481.724 287.536 482.12V498.68C287.536 499.076 287.212 499.4 286.816 499.4H282.856C282.46 499.4 282.136 499.724 282.136 500.12V502.28C282.136 502.676 282.46 503 282.856 503H295.816C296.212 503 296.536 502.676 296.536 502.28V500.12ZM324.256 489.32C324.256 488.924 323.932 488.6 323.536 488.6H321.376C320.98 488.6 320.656 488.276 320.656 487.88V478.52C320.656 478.124 320.332 477.8 319.936 477.8H317.776C317.38 477.8 317.056 478.124 317.056 478.52V487.88C317.056 488.276 316.732 488.6 316.336 488.6H306.976C306.58 488.6 306.256 488.276 306.256 487.88V478.52C306.256 478.124 305.932 477.8 305.536 477.8H303.376C302.98 477.8 302.656 478.124 302.656 478.52V491.48C302.656 491.876 302.98 492.2 303.376 492.2H316.336C316.732 492.2 317.056 492.524 317.056 492.92V502.28C317.056 502.676 317.38 503 317.776 503H319.936C320.332 503 320.656 502.676 320.656 502.28V492.92C320.656 492.524 320.98 492.2 321.376 492.2H323.536C323.932 492.2 324.256 491.876 324.256 491.48V489.32Z" fill="url(#paint11_linear_632_470)" fill-opacity="0.2"/>
</g>
<g filter="url(#filter3_d_632_470)">
<path d="M27.5365 316.12C27.5365 315.724 27.2125 315.4 26.8165 315.4H22.8565C22.4605 315.4 22.1365 315.076 22.1365 314.68V294.52C22.1365 294.124 21.8125 293.8 21.4165 293.8H13.8565C13.4605 293.8 13.1365 294.124 13.1365 294.52V296.68C13.1365 297.076 13.4605 297.4 13.8565 297.4H17.8165C18.2125 297.4 18.5365 297.724 18.5365 298.12V314.68C18.5365 315.076 18.2125 315.4 17.8165 315.4H13.8565C13.4605 315.4 13.1365 315.724 13.1365 316.12V318.28C13.1365 318.676 13.4605 319 13.8565 319H26.8165C27.2125 319 27.5365 318.676 27.5365 318.28V316.12ZM50.9365 297.328C51.3325 297.328 51.6565 297.652 51.6565 298.048V303.916C51.6565 304.312 51.3325 304.636 50.9365 304.636H37.9765C35.6005 304.636 33.6565 306.58 33.6565 308.956V315.472V318.28C33.6565 318.676 33.9805 319 34.3765 319H37.1845H54.4645C54.8605 319 55.1845 318.676 55.1845 318.28V316.192C55.1845 315.796 54.8605 315.472 54.4645 315.472H37.9045C37.5085 315.472 37.1845 315.148 37.1845 314.752V308.884C37.1845 308.488 37.5085 308.164 37.9045 308.164H50.8645C53.2765 308.164 55.1845 306.22 55.1845 303.844V298.12C55.1845 295.744 53.2765 293.8 50.8645 293.8H37.9045C37.5085 293.8 37.1845 294.124 37.1845 294.52V296.608C37.1845 297.004 37.5085 297.328 37.9045 297.328H50.9365Z" fill="url(#paint12_radial_632_470)"/>
<path d="M27.5365 316.12C27.5365 315.724 27.2125 315.4 26.8165 315.4H22.8565C22.4605 315.4 22.1365 315.076 22.1365 314.68V294.52C22.1365 294.124 21.8125 293.8 21.4165 293.8H13.8565C13.4605 293.8 13.1365 294.124 13.1365 294.52V296.68C13.1365 297.076 13.4605 297.4 13.8565 297.4H17.8165C18.2125 297.4 18.5365 297.724 18.5365 298.12V314.68C18.5365 315.076 18.2125 315.4 17.8165 315.4H13.8565C13.4605 315.4 13.1365 315.724 13.1365 316.12V318.28C13.1365 318.676 13.4605 319 13.8565 319H26.8165C27.2125 319 27.5365 318.676 27.5365 318.28V316.12ZM50.9365 297.328C51.3325 297.328 51.6565 297.652 51.6565 298.048V303.916C51.6565 304.312 51.3325 304.636 50.9365 304.636H37.9765C35.6005 304.636 33.6565 306.58 33.6565 308.956V315.472V318.28C33.6565 318.676 33.9805 319 34.3765 319H37.1845H54.4645C54.8605 319 55.1845 318.676 55.1845 318.28V316.192C55.1845 315.796 54.8605 315.472 54.4645 315.472H37.9045C37.5085 315.472 37.1845 315.148 37.1845 314.752V308.884C37.1845 308.488 37.5085 308.164 37.9045 308.164H50.8645C53.2765 308.164 55.1845 306.22 55.1845 303.844V298.12C55.1845 295.744 53.2765 293.8 50.8645 293.8H37.9045C37.5085 293.8 37.1845 294.124 37.1845 294.52V296.608C37.1845 297.004 37.5085 297.328 37.9045 297.328H50.9365Z" fill="url(#paint13_linear_632_470)" fill-opacity="0.2"/>
<path d="M27.5365 316.12C27.5365 315.724 27.2125 315.4 26.8165 315.4H22.8565C22.4605 315.4 22.1365 315.076 22.1365 314.68V294.52C22.1365 294.124 21.8125 293.8 21.4165 293.8H13.8565C13.4605 293.8 13.1365 294.124 13.1365 294.52V296.68C13.1365 297.076 13.4605 297.4 13.8565 297.4H17.8165C18.2125 297.4 18.5365 297.724 18.5365 298.12V314.68C18.5365 315.076 18.2125 315.4 17.8165 315.4H13.8565C13.4605 315.4 13.1365 315.724 13.1365 316.12V318.28C13.1365 318.676 13.4605 319 13.8565 319H26.8165C27.2125 319 27.5365 318.676 27.5365 318.28V316.12ZM50.9365 297.328C51.3325 297.328 51.6565 297.652 51.6565 298.048V303.916C51.6565 304.312 51.3325 304.636 50.9365 304.636H37.9765C35.6005 304.636 33.6565 306.58 33.6565 308.956V315.472V318.28C33.6565 318.676 33.9805 319 34.3765 319H37.1845H54.4645C54.8605 319 55.1845 318.676 55.1845 318.28V316.192C55.1845 315.796 54.8605 315.472 54.4645 315.472H37.9045C37.5085 315.472 37.1845 315.148 37.1845 314.752V308.884C37.1845 308.488 37.5085 308.164 37.9045 308.164H50.8645C53.2765 308.164 55.1845 306.22 55.1845 303.844V298.12C55.1845 295.744 53.2765 293.8 50.8645 293.8H37.9045C37.5085 293.8 37.1845 294.124 37.1845 294.52V296.608C37.1845 297.004 37.5085 297.328 37.9045 297.328H50.9365Z" fill="url(#paint14_radial_632_470)" fill-opacity="0.2"/>
<path d="M27.5365 316.12C27.5365 315.724 27.2125 315.4 26.8165 315.4H22.8565C22.4605 315.4 22.1365 315.076 22.1365 314.68V294.52C22.1365 294.124 21.8125 293.8 21.4165 293.8H13.8565C13.4605 293.8 13.1365 294.124 13.1365 294.52V296.68C13.1365 297.076 13.4605 297.4 13.8565 297.4H17.8165C18.2125 297.4 18.5365 297.724 18.5365 298.12V314.68C18.5365 315.076 18.2125 315.4 17.8165 315.4H13.8565C13.4605 315.4 13.1365 315.724 13.1365 316.12V318.28C13.1365 318.676 13.4605 319 13.8565 319H26.8165C27.2125 319 27.5365 318.676 27.5365 318.28V316.12ZM50.9365 297.328C51.3325 297.328 51.6565 297.652 51.6565 298.048V303.916C51.6565 304.312 51.3325 304.636 50.9365 304.636H37.9765C35.6005 304.636 33.6565 306.58 33.6565 308.956V315.472V318.28C33.6565 318.676 33.9805 319 34.3765 319H37.1845H54.4645C54.8605 319 55.1845 318.676 55.1845 318.28V316.192C55.1845 315.796 54.8605 315.472 54.4645 315.472H37.9045C37.5085 315.472 37.1845 315.148 37.1845 314.752V308.884C37.1845 308.488 37.5085 308.164 37.9045 308.164H50.8645C53.2765 308.164 55.1845 306.22 55.1845 303.844V298.12C55.1845 295.744 53.2765 293.8 50.8645 293.8H37.9045C37.5085 293.8 37.1845 294.124 37.1845 294.52V296.608C37.1845 297.004 37.5085 297.328 37.9045 297.328H50.9365Z" fill="url(#paint15_linear_632_470)" fill-opacity="0.2"/>
</g>
<g filter="url(#filter4_d_632_470)">
<path d="M259.313 207.328C259.709 207.328 260.033 207.652 260.033 208.048V213.916C260.033 214.312 259.709 214.636 259.313 214.636H246.353C243.977 214.636 242.033 216.58 242.033 218.956V225.472V228.28C242.033 228.676 242.357 229 242.753 229H245.561H262.841C263.237 229 263.561 228.676 263.561 228.28V226.192C263.561 225.796 263.237 225.472 262.841 225.472H246.281C245.885 225.472 245.561 225.148 245.561 224.752V218.884C245.561 218.488 245.885 218.164 246.281 218.164H259.241C261.653 218.164 263.561 216.22 263.561 213.844V208.12C263.561 205.744 261.653 203.8 259.241 203.8H246.281C245.885 203.8 245.561 204.124 245.561 204.52V206.608C245.561 207.004 245.885 207.328 246.281 207.328H259.313ZM278.76 217.48C278.76 217.876 279.084 218.2 279.48 218.2H281.64C282.036 218.2 282.36 217.876 282.36 217.48V215.32C282.36 214.924 282.036 214.6 281.64 214.6H279.48C279.084 214.6 278.76 214.924 278.76 215.32V217.48ZM287.76 224.68C287.76 225.076 287.436 225.4 287.04 225.4H274.08C273.684 225.4 273.36 225.076 273.36 224.68V208.12C273.36 207.724 273.684 207.4 274.08 207.4H287.04C287.436 207.4 287.76 207.724 287.76 208.12V224.68ZM274.08 203.8C271.704 203.8 269.76 205.744 269.76 208.12V224.68C269.76 227.056 271.704 229 274.08 229H287.04C289.416 229 291.36 227.056 291.36 224.68V208.12C291.36 205.744 289.416 203.8 287.04 203.8H274.08Z" fill="url(#paint16_radial_632_470)"/>
<path d="M259.313 207.328C259.709 207.328 260.033 207.652 260.033 208.048V213.916C260.033 214.312 259.709 214.636 259.313 214.636H246.353C243.977 214.636 242.033 216.58 242.033 218.956V225.472V228.28C242.033 228.676 242.357 229 242.753 229H245.561H262.841C263.237 229 263.561 228.676 263.561 228.28V226.192C263.561 225.796 263.237 225.472 262.841 225.472H246.281C245.885 225.472 245.561 225.148 245.561 224.752V218.884C245.561 218.488 245.885 218.164 246.281 218.164H259.241C261.653 218.164 263.561 216.22 263.561 213.844V208.12C263.561 205.744 261.653 203.8 259.241 203.8H246.281C245.885 203.8 245.561 204.124 245.561 204.52V206.608C245.561 207.004 245.885 207.328 246.281 207.328H259.313ZM278.76 217.48C278.76 217.876 279.084 218.2 279.48 218.2H281.64C282.036 218.2 282.36 217.876 282.36 217.48V215.32C282.36 214.924 282.036 214.6 281.64 214.6H279.48C279.084 214.6 278.76 214.924 278.76 215.32V217.48ZM287.76 224.68C287.76 225.076 287.436 225.4 287.04 225.4H274.08C273.684 225.4 273.36 225.076 273.36 224.68V208.12C273.36 207.724 273.684 207.4 274.08 207.4H287.04C287.436 207.4 287.76 207.724 287.76 208.12V224.68ZM274.08 203.8C271.704 203.8 269.76 205.744 269.76 208.12V224.68C269.76 227.056 271.704 229 274.08 229H287.04C289.416 229 291.36 227.056 291.36 224.68V208.12C291.36 205.744 289.416 203.8 287.04 203.8H274.08Z" fill="url(#paint17_linear_632_470)" fill-opacity="0.2"/>
<path d="M259.313 207.328C259.709 207.328 260.033 207.652 260.033 208.048V213.916C260.033 214.312 259.709 214.636 259.313 214.636H246.353C243.977 214.636 242.033 216.58 242.033 218.956V225.472V228.28C242.033 228.676 242.357 229 242.753 229H245.561H262.841C263.237 229 263.561 228.676 263.561 228.28V226.192C263.561 225.796 263.237 225.472 262.841 225.472H246.281C245.885 225.472 245.561 225.148 245.561 224.752V218.884C245.561 218.488 245.885 218.164 246.281 218.164H259.241C261.653 218.164 263.561 216.22 263.561 213.844V208.12C263.561 205.744 261.653 203.8 259.241 203.8H246.281C245.885 203.8 245.561 204.124 245.561 204.52V206.608C245.561 207.004 245.885 207.328 246.281 207.328H259.313ZM278.76 217.48C278.76 217.876 279.084 218.2 279.48 218.2H281.64C282.036 218.2 282.36 217.876 282.36 217.48V215.32C282.36 214.924 282.036 214.6 281.64 214.6H279.48C279.084 214.6 278.76 214.924 278.76 215.32V217.48ZM287.76 224.68C287.76 225.076 287.436 225.4 287.04 225.4H274.08C273.684 225.4 273.36 225.076 273.36 224.68V208.12C273.36 207.724 273.684 207.4 274.08 207.4H287.04C287.436 207.4 287.76 207.724 287.76 208.12V224.68ZM274.08 203.8C271.704 203.8 269.76 205.744 269.76 208.12V224.68C269.76 227.056 271.704 229 274.08 229H287.04C289.416 229 291.36 227.056 291.36 224.68V208.12C291.36 205.744 289.416 203.8 287.04 203.8H274.08Z" fill="url(#paint18_radial_632_470)" fill-opacity="0.2"/>
<path d="M259.313 207.328C259.709 207.328 260.033 207.652 260.033 208.048V213.916C260.033 214.312 259.709 214.636 259.313 214.636H246.353C243.977 214.636 242.033 216.58 242.033 218.956V225.472V228.28C242.033 228.676 242.357 229 242.753 229H245.561H262.841C263.237 229 263.561 228.676 263.561 228.28V226.192C263.561 225.796 263.237 225.472 262.841 225.472H246.281C245.885 225.472 245.561 225.148 245.561 224.752V218.884C245.561 218.488 245.885 218.164 246.281 218.164H259.241C261.653 218.164 263.561 216.22 263.561 213.844V208.12C263.561 205.744 261.653 203.8 259.241 203.8H246.281C245.885 203.8 245.561 204.124 245.561 204.52V206.608C245.561 207.004 245.885 207.328 246.281 207.328H259.313ZM278.76 217.48C278.76 217.876 279.084 218.2 279.48 218.2H281.64C282.036 218.2 282.36 217.876 282.36 217.48V215.32C282.36 214.924 282.036 214.6 281.64 214.6H279.48C279.084 214.6 278.76 214.924 278.76 215.32V217.48ZM287.76 224.68C287.76 225.076 287.436 225.4 287.04 225.4H274.08C273.684 225.4 273.36 225.076 273.36 224.68V208.12C273.36 207.724 273.684 207.4 274.08 207.4H287.04C287.436 207.4 287.76 207.724 287.76 208.12V224.68ZM274.08 203.8C271.704 203.8 269.76 205.744 269.76 208.12V224.68C269.76 227.056 271.704 229 274.08 229H287.04C289.416 229 291.36 227.056 291.36 224.68V208.12C291.36 205.744 289.416 203.8 287.04 203.8H274.08Z" fill="url(#paint19_linear_632_470)" fill-opacity="0.2"/>
</g>
<g filter="url(#filter5_d_632_470)">
<path d="M39.3965 13.88C39.3965 14.276 39.0725 14.6 38.6765 14.6H25.7165C25.3205 14.6 24.9965 14.276 24.9965 13.88V8.12C24.9965 7.724 25.3205 7.4 25.7165 7.4H38.6765C39.0725 7.4 39.3965 7.724 39.3965 8.12V13.88ZM38.6765 3.8H25.7165C23.3405 3.8 21.3965 5.744 21.3965 8.12V13.88C21.3965 16.256 23.3405 18.2 25.7165 18.2H38.6765C39.0725 18.2 39.3965 18.524 39.3965 18.92V24.68C39.3965 25.076 39.0725 25.4 38.6765 25.4H25.7165C25.3205 25.4 24.9965 25.724 24.9965 26.12V28.28C24.9965 28.676 25.3205 29 25.7165 29H38.6765C41.0525 29 42.9965 27.056 42.9965 24.68V8.12C42.9965 5.744 41.0525 3.8 38.6765 3.8Z" fill="url(#paint20_radial_632_470)"/>
<path d="M39.3965 13.88C39.3965 14.276 39.0725 14.6 38.6765 14.6H25.7165C25.3205 14.6 24.9965 14.276 24.9965 13.88V8.12C24.9965 7.724 25.3205 7.4 25.7165 7.4H38.6765C39.0725 7.4 39.3965 7.724 39.3965 8.12V13.88ZM38.6765 3.8H25.7165C23.3405 3.8 21.3965 5.744 21.3965 8.12V13.88C21.3965 16.256 23.3405 18.2 25.7165 18.2H38.6765C39.0725 18.2 39.3965 18.524 39.3965 18.92V24.68C39.3965 25.076 39.0725 25.4 38.6765 25.4H25.7165C25.3205 25.4 24.9965 25.724 24.9965 26.12V28.28C24.9965 28.676 25.3205 29 25.7165 29H38.6765C41.0525 29 42.9965 27.056 42.9965 24.68V8.12C42.9965 5.744 41.0525 3.8 38.6765 3.8Z" fill="url(#paint21_linear_632_470)" fill-opacity="0.2"/>
<path d="M39.3965 13.88C39.3965 14.276 39.0725 14.6 38.6765 14.6H25.7165C25.3205 14.6 24.9965 14.276 24.9965 13.88V8.12C24.9965 7.724 25.3205 7.4 25.7165 7.4H38.6765C39.0725 7.4 39.3965 7.724 39.3965 8.12V13.88ZM38.6765 3.8H25.7165C23.3405 3.8 21.3965 5.744 21.3965 8.12V13.88C21.3965 16.256 23.3405 18.2 25.7165 18.2H38.6765C39.0725 18.2 39.3965 18.524 39.3965 18.92V24.68C39.3965 25.076 39.0725 25.4 38.6765 25.4H25.7165C25.3205 25.4 24.9965 25.724 24.9965 26.12V28.28C24.9965 28.676 25.3205 29 25.7165 29H38.6765C41.0525 29 42.9965 27.056 42.9965 24.68V8.12C42.9965 5.744 41.0525 3.8 38.6765 3.8Z" fill="url(#paint22_radial_632_470)" fill-opacity="0.2"/>
<path d="M39.3965 13.88C39.3965 14.276 39.0725 14.6 38.6765 14.6H25.7165C25.3205 14.6 24.9965 14.276 24.9965 13.88V8.12C24.9965 7.724 25.3205 7.4 25.7165 7.4H38.6765C39.0725 7.4 39.3965 7.724 39.3965 8.12V13.88ZM38.6765 3.8H25.7165C23.3405 3.8 21.3965 5.744 21.3965 8.12V13.88C21.3965 16.256 23.3405 18.2 25.7165 18.2H38.6765C39.0725 18.2 39.3965 18.524 39.3965 18.92V24.68C39.3965 25.076 39.0725 25.4 38.6765 25.4H25.7165C25.3205 25.4 24.9965 25.724 24.9965 26.12V28.28C24.9965 28.676 25.3205 29 25.7165 29H38.6765C41.0525 29 42.9965 27.056 42.9965 24.68V8.12C42.9965 5.744 41.0525 3.8 38.6765 3.8Z" fill="url(#paint23_linear_632_470)" fill-opacity="0.2"/>
</g>
<defs>
<filter id="filter0_d_632_470" x="310.396" y="1561.8" width="29.6001" height="33.2" filterUnits="userSpaceOnUse" color-interpolation-filters="sRGB">
<feFlood flood-opacity="0" result="BackgroundImageFix"/>
<feColorMatrix in="SourceAlpha" type="matrix" values="0 0 0 0 0 0 0 0 0 0 0 0 0 0 0 0 0 0 127 0" result="hardAlpha"/>
<feOffset dy="4"/>
<feGaussianBlur stdDeviation="2"/>
<feComposite in2="hardAlpha" operator="out"/>
<feColorMatrix type="matrix" values="0 0 0 0 0 0 0 0 0 0 0 0 0 0 0 0 0 0 0.25 0"/>
<feBlend mode="normal" in2="BackgroundImageFix" result="effect1_dropShadow_632_470"/>
<feBlend mode="normal" in="SourceGraphic" in2="effect1_dropShadow_632_470" result="shape"/>
</filter>
<filter id="filter1_d_632_470" x="0" y="1060.8" width="22.3999" height="33.2" filterUnits="userSpaceOnUse" color-interpolation-filters="sRGB">
<feFlood flood-opacity="0" result="BackgroundImageFix"/>
<feColorMatrix in="SourceAlpha" type="matrix" values="0 0 0 0 0 0 0 0 0 0 0 0 0 0 0 0 0 0 127 0" result="hardAlpha"/>
<feOffset dy="4"/>
<feGaussianBlur stdDeviation="2"/>
<feComposite in2="hardAlpha" operator="out"/>
<feColorMatrix type="matrix" values="0 0 0 0 0 0 0 0 0 0 0 0 0 0 0 0 0 0 0.25 0"/>
<feBlend mode="normal" in2="BackgroundImageFix" result="effect1_dropShadow_632_470"/>
<feBlend mode="normal" in="SourceGraphic" in2="effect1_dropShadow_632_470" result="shape"/>
</filter>
<filter id="filter2_d_632_470" x="278.137" y="477.8" width="50.1196" height="33.2" filterUnits="userSpaceOnUse" color-interpolation-filters="sRGB">
<feFlood flood-opacity="0" result="BackgroundImageFix"/>
<feColorMatrix in="SourceAlpha" type="matrix" values="0 0 0 0 0 0 0 0 0 0 0 0 0 0 0 0 0 0 127 0" result="hardAlpha"/>
<feOffset dy="4"/>
<feGaussianBlur stdDeviation="2"/>
<feComposite in2="hardAlpha" operator="out"/>
<feColorMatrix type="matrix" values="0 0 0 0 0 0 0 0 0 0 0 0 0 0 0 0 0 0 0.25 0"/>
<feBlend mode="normal" in2="BackgroundImageFix" result="effect1_dropShadow_632_470"/>
<feBlend mode="normal" in="SourceGraphic" in2="effect1_dropShadow_632_470" result="shape"/>
</filter>
<filter id="filter3_d_632_470" x="9.13647" y="293.8" width="50.0481" height="33.2" filterUnits="userSpaceOnUse" color-interpolation-filters="sRGB">
<feFlood flood-opacity="0" result="BackgroundImageFix"/>
<feColorMatrix in="SourceAlpha" type="matrix" values="0 0 0 0 0 0 0 0 0 0 0 0 0 0 0 0 0 0 127 0" result="hardAlpha"/>
<feOffset dy="4"/>
<feGaussianBlur stdDeviation="2"/>
<feComposite in2="hardAlpha" operator="out"/>
<feColorMatrix type="matrix" values="0 0 0 0 0 0 0 0 0 0 0 0 0 0 0 0 0 0 0.25 0"/>
<feBlend mode="normal" in2="BackgroundImageFix" result="effect1_dropShadow_632_470"/>
<feBlend mode="normal" in="SourceGraphic" in2="effect1_dropShadow_632_470" result="shape"/>
</filter>
<filter id="filter4_d_632_470" x="238.033" y="203.8" width="57.3267" height="33.2" filterUnits="userSpaceOnUse" color-interpolation-filters="sRGB">
<feFlood flood-opacity="0" result="BackgroundImageFix"/>
<feColorMatrix in="SourceAlpha" type="matrix" values="0 0 0 0 0 0 0 0 0 0 0 0 0 0 0 0 0 0 127 0" result="hardAlpha"/>
<feOffset dy="4"/>
<feGaussianBlur stdDeviation="2"/>
<feComposite in2="hardAlpha" operator="out"/>
<feColorMatrix type="matrix" values="0 0 0 0 0 0 0 0 0 0 0 0 0 0 0 0 0 0 0.25 0"/>
<feBlend mode="normal" in2="BackgroundImageFix" result="effect1_dropShadow_632_470"/>
<feBlend mode="normal" in="SourceGraphic" in2="effect1_dropShadow_632_470" result="shape"/>
</filter>
<filter id="filter5_d_632_470" x="17.3965" y="3.80005" width="29.6001" height="33.2" filterUnits="userSpaceOnUse" color-interpolation-filters="sRGB">
<feFlood flood-opacity="0" result="BackgroundImageFix"/>
<feColorMatrix in="SourceAlpha" type="matrix" values="0 0 0 0 0 0 0 0 0 0 0 0 0 0 0 0 0 0 127 0" result="hardAlpha"/>
<feOffset dy="4"/>
<feGaussianBlur stdDeviation="2"/>
<feComposite in2="hardAlpha" operator="out"/>
<feColorMatrix type="matrix" values="0 0 0 0 0 0 0 0 0 0 0 0 0 0 0 0 0 0 0.25 0"/>
<feBlend mode="normal" in2="BackgroundImageFix" result="effect1_dropShadow_632_470"/>
<feBlend mode="normal" in="SourceGraphic" in2="effect1_dropShadow_632_470" result="shape"/>
</filter>
<radialGradient id="paint0_radial_632_470" cx="0" cy="0" r="1" gradientUnits="userSpaceOnUse" gradientTransform="translate(327 1578) rotate(90) scale(20 13)">
<stop stop-color="#F0AFBB"/>
<stop offset="1" stop-color="#FF5C79"/>
</radialGradient>
<linearGradient id="paint1_linear_632_470" x1="316.943" y1="1547.43" x2="342.212" y2="1556.75" gradientUnits="userSpaceOnUse">
<stop stop-color="#DB80FF"/>
<stop offset="1" stop-color="#FFEAEE" stop-opacity="0.6"/>
</linearGradient>
<radialGradient id="paint2_radial_632_470" cx="0" cy="0" r="1" gradientUnits="userSpaceOnUse" gradientTransform="translate(334.349 1583.94) rotate(-102.159) scale(23.2988 23.6318)">
<stop stop-color="#FFEAEE"/>
<stop offset="1" stop-color="#CC1838"/>
</radialGradient>
<linearGradient id="paint3_linear_632_470" x1="335.925" y1="1586" x2="314.906" y2="1585.12" gradientUnits="userSpaceOnUse">
<stop stop-color="#D5425C" stop-opacity="0.8"/>
<stop offset="1" stop-color="#FFEAEE" stop-opacity="0.52"/>
</linearGradient>
<radialGradient id="paint4_radial_632_470" cx="0" cy="0" r="1" gradientUnits="userSpaceOnUse" gradientTransform="translate(13 1077) rotate(90) scale(20 9)">
<stop stop-color="#F0AFBB"/>
<stop offset="1" stop-color="#FF5C79"/>
</radialGradient>
<linearGradient id="paint5_linear_632_470" x1="6.03731" y1="1046.43" x2="24.6948" y2="1051.2" gradientUnits="userSpaceOnUse">
<stop stop-color="#DB80FF"/>
<stop offset="1" stop-color="#FFEAEE" stop-opacity="0.6"/>
</linearGradient>
<radialGradient id="paint6_radial_632_470" cx="0" cy="0" r="1" gradientUnits="userSpaceOnUse" gradientTransform="translate(18.0877 1082.94) rotate(-98.4839) scale(23.0281 16.5528)">
<stop stop-color="#FFEAEE"/>
<stop offset="1" stop-color="#CC1838"/>
</radialGradient>
<linearGradient id="paint7_linear_632_470" x1="19.1791" y1="1085" x2="4.61438" y2="1084.58" gradientUnits="userSpaceOnUse">
<stop stop-color="#D5425C" stop-opacity="0.8"/>
<stop offset="1" stop-color="#FFEAEE" stop-opacity="0.52"/>
</linearGradient>
<radialGradient id="paint8_radial_632_470" cx="0" cy="0" r="1" gradientUnits="userSpaceOnUse" gradientTransform="translate(305 494) rotate(90) scale(20 23)">
<stop stop-color="#F0AFBB"/>
<stop offset="1" stop-color="#FF5C79"/>
</radialGradient>
<linearGradient id="paint9_linear_632_470" x1="287.206" y1="463.433" x2="322.829" y2="486.676" gradientUnits="userSpaceOnUse">
<stop stop-color="#DB80FF"/>
<stop offset="1" stop-color="#FFEAEE" stop-opacity="0.6"/>
</linearGradient>
<radialGradient id="paint10_radial_632_470" cx="0" cy="0" r="1" gradientUnits="userSpaceOnUse" gradientTransform="translate(318.002 499.94) rotate(-110.867) scale(24.3748 39.9643)">
<stop stop-color="#FFEAEE"/>
<stop offset="1" stop-color="#CC1838"/>
</radialGradient>
<linearGradient id="paint11_linear_632_470" x1="320.791" y1="502" x2="283.741" y2="499.264" gradientUnits="userSpaceOnUse">
<stop stop-color="#D5425C" stop-opacity="0.8"/>
<stop offset="1" stop-color="#FFEAEE" stop-opacity="0.52"/>
</linearGradient>
<radialGradient id="paint12_radial_632_470" cx="0" cy="0" r="1" gradientUnits="userSpaceOnUse" gradientTransform="translate(36 310) rotate(90) scale(20 23)">
<stop stop-color="#F0AFBB"/>
<stop offset="1" stop-color="#FF5C79"/>
</radialGradient>
<linearGradient id="paint13_linear_632_470" x1="18.2065" y1="279.433" x2="53.8287" y2="302.676" gradientUnits="userSpaceOnUse">
<stop stop-color="#DB80FF"/>
<stop offset="1" stop-color="#FFEAEE" stop-opacity="0.6"/>
</linearGradient>
<radialGradient id="paint14_radial_632_470" cx="0" cy="0" r="1" gradientUnits="userSpaceOnUse" gradientTransform="translate(49.0019 315.94) rotate(-110.867) scale(24.3748 39.9643)">
<stop stop-color="#FFEAEE"/>
<stop offset="1" stop-color="#CC1838"/>
</radialGradient>
<linearGradient id="paint15_linear_632_470" x1="51.791" y1="318" x2="14.741" y2="315.264" gradientUnits="userSpaceOnUse">
<stop stop-color="#D5425C" stop-opacity="0.8"/>
<stop offset="1" stop-color="#FFEAEE" stop-opacity="0.52"/>
</linearGradient>
<radialGradient id="paint16_radial_632_470" cx="0" cy="0" r="1" gradientUnits="userSpaceOnUse" gradientTransform="translate(268.5 220) rotate(90) scale(20 26.5)">
<stop stop-color="#F0AFBB"/>
<stop offset="1" stop-color="#FF5C79"/>
</radialGradient>
<linearGradient id="paint17_linear_632_470" x1="247.999" y1="189.433" x2="285.385" y2="217.54" gradientUnits="userSpaceOnUse">
<stop stop-color="#DB80FF"/>
<stop offset="1" stop-color="#FFEAEE" stop-opacity="0.6"/>
</linearGradient>
<radialGradient id="paint18_radial_632_470" cx="0" cy="0" r="1" gradientUnits="userSpaceOnUse" gradientTransform="translate(283.48 225.94) rotate(-113.711) scale(24.8761 45.118)">
<stop stop-color="#FFEAEE"/>
<stop offset="1" stop-color="#CC1838"/>
</radialGradient>
<linearGradient id="paint19_linear_632_470" x1="286.694" y1="228" x2="244.082" y2="224.375" gradientUnits="userSpaceOnUse">
<stop stop-color="#D5425C" stop-opacity="0.8"/>
<stop offset="1" stop-color="#FFEAEE" stop-opacity="0.52"/>
</linearGradient>
<radialGradient id="paint20_radial_632_470" cx="0" cy="0" r="1" gradientUnits="userSpaceOnUse" gradientTransform="translate(34 20) rotate(90) scale(20 13)">
<stop stop-color="#F0AFBB"/>
<stop offset="1" stop-color="#FF5C79"/>
</radialGradient>
<linearGradient id="paint21_linear_632_470" x1="23.9428" y1="-10.5672" x2="49.2123" y2="-1.24768" gradientUnits="userSpaceOnUse">
<stop stop-color="#DB80FF"/>
<stop offset="1" stop-color="#FFEAEE" stop-opacity="0.6"/>
</linearGradient>
<radialGradient id="paint22_radial_632_470" cx="0" cy="0" r="1" gradientUnits="userSpaceOnUse" gradientTransform="translate(41.3489 25.9403) rotate(-102.159) scale(23.2988 23.6318)">
<stop stop-color="#FFEAEE"/>
<stop offset="1" stop-color="#CC1838"/>
</radialGradient>
<linearGradient id="paint23_linear_632_470" x1="42.9254" y1="28" x2="21.9065" y2="27.1228" gradientUnits="userSpaceOnUse">
<stop stop-color="#D5425C" stop-opacity="0.8"/>
<stop offset="1" stop-color="#FFEAEE" stop-opacity="0.52"/>
</linearGradient>
</defs>
</svg>
