<svg width="1166" height="1833" viewBox="0 0 1166 1833" fill="none" xmlns="http://www.w3.org/2000/svg">
<g filter="url(#filter0_d_619_337)">
<path d="M1054.41 1784.76C1054.41 1783.35 1053.26 1782.2 1051.85 1782.2H1037.77C1036.36 1782.2 1035.21 1781.05 1035.21 1779.64V1707.96C1035.21 1706.55 1034.06 1705.4 1032.65 1705.4H1005.77C1004.36 1705.4 1003.21 1706.55 1003.21 1707.96V1715.64C1003.21 1717.05 1004.36 1718.2 1005.77 1718.2H1019.85C1021.26 1718.2 1022.41 1719.35 1022.41 1720.76V1779.64C1022.41 1781.05 1021.26 1782.2 1019.85 1782.2H1005.77C1004.36 1782.2 1003.21 1783.35 1003.21 1784.76V1792.44C1003.21 1793.85 1004.36 1795 1005.77 1795H1051.85C1053.26 1795 1054.41 1793.85 1054.41 1792.44V1784.76ZM1137.61 1717.94C1139.02 1717.94 1140.17 1719.1 1140.17 1720.5V1741.37C1140.17 1742.78 1139.02 1743.93 1137.61 1743.93H1091.53C1083.08 1743.93 1076.17 1750.84 1076.17 1759.29V1782.46V1792.44C1076.17 1793.85 1077.32 1795 1078.73 1795H1088.71H1150.15C1151.56 1795 1152.71 1793.85 1152.71 1792.44V1785.02C1152.71 1783.61 1151.56 1782.46 1150.15 1782.46H1091.27C1089.86 1782.46 1088.71 1781.3 1088.71 1779.9V1759.03C1088.71 1757.62 1089.86 1756.47 1091.27 1756.47H1137.35C1145.93 1756.47 1152.71 1749.56 1152.71 1741.11V1720.76C1152.71 1712.31 1145.93 1705.4 1137.35 1705.4H1091.27C1089.86 1705.4 1088.71 1706.55 1088.71 1707.96V1715.38C1088.71 1716.79 1089.86 1717.94 1091.27 1717.94H1137.61Z" fill="url(#paint0_radial_619_337)"/>
<path d="M1054.41 1784.76C1054.41 1783.35 1053.26 1782.2 1051.85 1782.2H1037.77C1036.36 1782.2 1035.21 1781.05 1035.21 1779.64V1707.96C1035.21 1706.55 1034.06 1705.4 1032.65 1705.4H1005.77C1004.36 1705.4 1003.21 1706.55 1003.21 1707.96V1715.64C1003.21 1717.05 1004.36 1718.2 1005.77 1718.2H1019.85C1021.26 1718.2 1022.41 1719.35 1022.41 1720.76V1779.64C1022.41 1781.05 1021.26 1782.2 1019.85 1782.2H1005.77C1004.36 1782.2 1003.21 1783.35 1003.21 1784.76V1792.44C1003.21 1793.85 1004.36 1795 1005.77 1795H1051.85C1053.26 1795 1054.41 1793.85 1054.41 1792.44V1784.76ZM1137.61 1717.94C1139.02 1717.94 1140.17 1719.1 1140.17 1720.5V1741.37C1140.17 1742.78 1139.02 1743.93 1137.61 1743.93H1091.53C1083.08 1743.93 1076.17 1750.84 1076.17 1759.29V1782.46V1792.44C1076.17 1793.85 1077.32 1795 1078.73 1795H1088.71H1150.15C1151.56 1795 1152.71 1793.85 1152.71 1792.44V1785.02C1152.71 1783.61 1151.56 1782.46 1150.15 1782.46H1091.27C1089.86 1782.46 1088.71 1781.3 1088.71 1779.9V1759.03C1088.71 1757.62 1089.86 1756.47 1091.27 1756.47H1137.35C1145.93 1756.47 1152.71 1749.56 1152.71 1741.11V1720.76C1152.71 1712.31 1145.93 1705.4 1137.35 1705.4H1091.27C1089.86 1705.4 1088.71 1706.55 1088.71 1707.96V1715.38C1088.71 1716.79 1089.86 1717.94 1091.27 1717.94H1137.61Z" fill="url(#paint1_linear_619_337)" fill-opacity="0.2"/>
<path d="M1054.41 1784.76C1054.41 1783.35 1053.26 1782.2 1051.85 1782.2H1037.77C1036.36 1782.2 1035.21 1781.05 1035.21 1779.64V1707.96C1035.21 1706.55 1034.06 1705.4 1032.65 1705.4H1005.77C1004.36 1705.4 1003.21 1706.55 1003.21 1707.96V1715.64C1003.21 1717.05 1004.36 1718.2 1005.77 1718.2H1019.85C1021.26 1718.2 1022.41 1719.35 1022.41 1720.76V1779.64C1022.41 1781.05 1021.26 1782.2 1019.85 1782.2H1005.77C1004.36 1782.2 1003.21 1783.35 1003.21 1784.76V1792.44C1003.21 1793.85 1004.36 1795 1005.77 1795H1051.85C1053.26 1795 1054.41 1793.85 1054.41 1792.44V1784.76ZM1137.61 1717.94C1139.02 1717.94 1140.17 1719.1 1140.17 1720.5V1741.37C1140.17 1742.78 1139.02 1743.93 1137.61 1743.93H1091.53C1083.08 1743.93 1076.17 1750.84 1076.17 1759.29V1782.46V1792.44C1076.17 1793.85 1077.32 1795 1078.73 1795H1088.71H1150.15C1151.56 1795 1152.71 1793.85 1152.71 1792.44V1785.02C1152.71 1783.61 1151.56 1782.46 1150.15 1782.46H1091.27C1089.86 1782.46 1088.71 1781.3 1088.71 1779.9V1759.03C1088.71 1757.62 1089.86 1756.47 1091.27 1756.47H1137.35C1145.93 1756.47 1152.71 1749.56 1152.71 1741.11V1720.76C1152.71 1712.31 1145.93 1705.4 1137.35 1705.4H1091.27C1089.86 1705.4 1088.71 1706.55 1088.71 1707.96V1715.38C1088.71 1716.79 1089.86 1717.94 1091.27 1717.94H1137.61Z" fill="url(#paint2_radial_619_337)" fill-opacity="0.2"/>
<path d="M1054.41 1784.76C1054.41 1783.35 1053.26 1782.2 1051.85 1782.2H1037.77C1036.36 1782.2 1035.21 1781.05 1035.21 1779.64V1707.96C1035.21 1706.55 1034.06 1705.4 1032.65 1705.4H1005.77C1004.36 1705.4 1003.21 1706.55 1003.21 1707.96V1715.64C1003.21 1717.05 1004.36 1718.2 1005.77 1718.2H1019.85C1021.26 1718.2 1022.41 1719.35 1022.41 1720.76V1779.64C1022.41 1781.05 1021.26 1782.2 1019.85 1782.2H1005.77C1004.36 1782.2 1003.21 1783.35 1003.21 1784.76V1792.44C1003.21 1793.85 1004.36 1795 1005.77 1795H1051.85C1053.26 1795 1054.41 1793.85 1054.41 1792.44V1784.76ZM1137.61 1717.94C1139.02 1717.94 1140.17 1719.1 1140.17 1720.5V1741.37C1140.17 1742.78 1139.02 1743.93 1137.61 1743.93H1091.53C1083.08 1743.93 1076.17 1750.84 1076.17 1759.29V1782.46V1792.44C1076.17 1793.85 1077.32 1795 1078.73 1795H1088.71H1150.15C1151.56 1795 1152.71 1793.85 1152.71 1792.44V1785.02C1152.71 1783.61 1151.56 1782.46 1150.15 1782.46H1091.27C1089.86 1782.46 1088.71 1781.3 1088.71 1779.9V1759.03C1088.71 1757.62 1089.86 1756.47 1091.27 1756.47H1137.35C1145.93 1756.47 1152.71 1749.56 1152.71 1741.11V1720.76C1152.71 1712.31 1145.93 1705.4 1137.35 1705.4H1091.27C1089.86 1705.4 1088.71 1706.55 1088.71 1707.96V1715.38C1088.71 1716.79 1089.86 1717.94 1091.27 1717.94H1137.61Z" fill="url(#paint3_linear_619_337)" fill-opacity="0.2"/>
</g>
<g filter="url(#filter1_d_619_337)">
<path d="M64.2 1614.76C64.2 1613.35 63.048 1612.2 61.64 1612.2H47.56C46.152 1612.2 45 1611.05 45 1609.64V1537.96C45 1536.55 43.848 1535.4 42.44 1535.4H15.56C14.152 1535.4 13 1536.55 13 1537.96V1545.64C13 1547.05 14.152 1548.2 15.56 1548.2H29.64C31.048 1548.2 32.2 1549.35 32.2 1550.76V1609.64C32.2 1611.05 31.048 1612.2 29.64 1612.2H15.56C14.152 1612.2 13 1613.35 13 1614.76V1622.44C13 1623.85 14.152 1625 15.56 1625H61.64C63.048 1625 64.2 1623.85 64.2 1622.44V1614.76Z" fill="url(#paint4_radial_619_337)"/>
<path d="M64.2 1614.76C64.2 1613.35 63.048 1612.2 61.64 1612.2H47.56C46.152 1612.2 45 1611.05 45 1609.64V1537.96C45 1536.55 43.848 1535.4 42.44 1535.4H15.56C14.152 1535.4 13 1536.55 13 1537.96V1545.64C13 1547.05 14.152 1548.2 15.56 1548.2H29.64C31.048 1548.2 32.2 1549.35 32.2 1550.76V1609.64C32.2 1611.05 31.048 1612.2 29.64 1612.2H15.56C14.152 1612.2 13 1613.35 13 1614.76V1622.44C13 1623.85 14.152 1625 15.56 1625H61.64C63.048 1625 64.2 1623.85 64.2 1622.44V1614.76Z" fill="url(#paint5_linear_619_337)" fill-opacity="0.2"/>
<path d="M64.2 1614.76C64.2 1613.35 63.048 1612.2 61.64 1612.2H47.56C46.152 1612.2 45 1611.05 45 1609.64V1537.96C45 1536.55 43.848 1535.4 42.44 1535.4H15.56C14.152 1535.4 13 1536.55 13 1537.96V1545.64C13 1547.05 14.152 1548.2 15.56 1548.2H29.64C31.048 1548.2 32.2 1549.35 32.2 1550.76V1609.64C32.2 1611.05 31.048 1612.2 29.64 1612.2H15.56C14.152 1612.2 13 1613.35 13 1614.76V1622.44C13 1623.85 14.152 1625 15.56 1625H61.64C63.048 1625 64.2 1623.85 64.2 1622.44V1614.76Z" fill="url(#paint6_radial_619_337)" fill-opacity="0.2"/>
<path d="M64.2 1614.76C64.2 1613.35 63.048 1612.2 61.64 1612.2H47.56C46.152 1612.2 45 1611.05 45 1609.64V1537.96C45 1536.55 43.848 1535.4 42.44 1535.4H15.56C14.152 1535.4 13 1536.55 13 1537.96V1545.64C13 1547.05 14.152 1548.2 15.56 1548.2H29.64C31.048 1548.2 32.2 1549.35 32.2 1550.76V1609.64C32.2 1611.05 31.048 1612.2 29.64 1612.2H15.56C14.152 1612.2 13 1613.35 13 1614.76V1622.44C13 1623.85 14.152 1625 15.56 1625H61.64C63.048 1625 64.2 1623.85 64.2 1622.44V1614.76Z" fill="url(#paint7_linear_619_337)" fill-opacity="0.2"/>
</g>
<g filter="url(#filter2_d_619_337)">
<path d="M297.988 1266.36C297.988 1264.95 296.836 1263.8 295.428 1263.8H287.748C286.34 1263.8 285.188 1262.65 285.188 1261.24V1227.96C285.188 1226.55 284.036 1225.4 282.628 1225.4H274.948C273.54 1225.4 272.388 1226.55 272.388 1227.96V1261.24C272.388 1262.65 271.236 1263.8 269.828 1263.8H236.548C235.14 1263.8 233.988 1262.65 233.988 1261.24V1227.96C233.988 1226.55 232.836 1225.4 231.428 1225.4H223.748C222.34 1225.4 221.188 1226.55 221.188 1227.96V1274.04C221.188 1275.45 222.34 1276.6 223.748 1276.6H269.828C271.236 1276.6 272.388 1277.75 272.388 1279.16V1312.44C272.388 1313.85 273.54 1315 274.948 1315H282.628C284.036 1315 285.188 1313.85 285.188 1312.44V1279.16C285.188 1277.75 286.34 1276.6 287.748 1276.6H295.428C296.836 1276.6 297.988 1275.45 297.988 1274.04V1266.36Z" fill="url(#paint8_radial_619_337)"/>
<path d="M297.988 1266.36C297.988 1264.95 296.836 1263.8 295.428 1263.8H287.748C286.34 1263.8 285.188 1262.65 285.188 1261.24V1227.96C285.188 1226.55 284.036 1225.4 282.628 1225.4H274.948C273.54 1225.4 272.388 1226.55 272.388 1227.96V1261.24C272.388 1262.65 271.236 1263.8 269.828 1263.8H236.548C235.14 1263.8 233.988 1262.65 233.988 1261.24V1227.96C233.988 1226.55 232.836 1225.4 231.428 1225.4H223.748C222.34 1225.4 221.188 1226.55 221.188 1227.96V1274.04C221.188 1275.45 222.34 1276.6 223.748 1276.6H269.828C271.236 1276.6 272.388 1277.75 272.388 1279.16V1312.44C272.388 1313.85 273.54 1315 274.948 1315H282.628C284.036 1315 285.188 1313.85 285.188 1312.44V1279.16C285.188 1277.75 286.34 1276.6 287.748 1276.6H295.428C296.836 1276.6 297.988 1275.45 297.988 1274.04V1266.36Z" fill="url(#paint9_linear_619_337)" fill-opacity="0.2"/>
<path d="M297.988 1266.36C297.988 1264.95 296.836 1263.8 295.428 1263.8H287.748C286.34 1263.8 285.188 1262.65 285.188 1261.24V1227.96C285.188 1226.55 284.036 1225.4 282.628 1225.4H274.948C273.54 1225.4 272.388 1226.55 272.388 1227.96V1261.24C272.388 1262.65 271.236 1263.8 269.828 1263.8H236.548C235.14 1263.8 233.988 1262.65 233.988 1261.24V1227.96C233.988 1226.55 232.836 1225.4 231.428 1225.4H223.748C222.34 1225.4 221.188 1226.55 221.188 1227.96V1274.04C221.188 1275.45 222.34 1276.6 223.748 1276.6H269.828C271.236 1276.6 272.388 1277.75 272.388 1279.16V1312.44C272.388 1313.85 273.54 1315 274.948 1315H282.628C284.036 1315 285.188 1313.85 285.188 1312.44V1279.16C285.188 1277.75 286.34 1276.6 287.748 1276.6H295.428C296.836 1276.6 297.988 1275.45 297.988 1274.04V1266.36Z" fill="url(#paint10_radial_619_337)" fill-opacity="0.2"/>
<path d="M297.988 1266.36C297.988 1264.95 296.836 1263.8 295.428 1263.8H287.748C286.34 1263.8 285.188 1262.65 285.188 1261.24V1227.96C285.188 1226.55 284.036 1225.4 282.628 1225.4H274.948C273.54 1225.4 272.388 1226.55 272.388 1227.96V1261.24C272.388 1262.65 271.236 1263.8 269.828 1263.8H236.548C235.14 1263.8 233.988 1262.65 233.988 1261.24V1227.96C233.988 1226.55 232.836 1225.4 231.428 1225.4H223.748C222.34 1225.4 221.188 1226.55 221.188 1227.96V1274.04C221.188 1275.45 222.34 1276.6 223.748 1276.6H269.828C271.236 1276.6 272.388 1277.75 272.388 1279.16V1312.44C272.388 1313.85 273.54 1315 274.948 1315H282.628C284.036 1315 285.188 1313.85 285.188 1312.44V1279.16C285.188 1277.75 286.34 1276.6 287.748 1276.6H295.428C296.836 1276.6 297.988 1275.45 297.988 1274.04V1266.36Z" fill="url(#paint11_linear_619_337)" fill-opacity="0.2"/>
</g>
<g filter="url(#filter3_d_619_337)">
<path d="M220.835 543.944C222.243 543.944 223.395 545.096 223.395 546.504V567.368C223.395 568.776 222.243 569.928 220.835 569.928H174.755C166.307 569.928 159.395 576.84 159.395 585.288V608.456V618.44C159.395 619.848 160.547 621 161.955 621H171.939H233.379C234.787 621 235.939 619.848 235.939 618.44V611.016C235.939 609.608 234.787 608.456 233.379 608.456H174.499C173.091 608.456 171.939 607.304 171.939 605.896V585.032C171.939 583.624 173.091 582.472 174.499 582.472H220.579C229.155 582.472 235.939 575.56 235.939 567.112V546.76C235.939 538.312 229.155 531.4 220.579 531.4H174.499C173.091 531.4 171.939 532.552 171.939 533.96V541.384C171.939 542.792 173.091 543.944 174.499 543.944H220.835ZM289.98 580.04C289.98 581.448 291.132 582.6 292.54 582.6H300.22C301.628 582.6 302.78 581.448 302.78 580.04V572.36C302.78 570.952 301.628 569.8 300.22 569.8H292.54C291.132 569.8 289.98 570.952 289.98 572.36V580.04ZM321.98 605.64C321.98 607.048 320.828 608.2 319.42 608.2H273.34C271.932 608.2 270.78 607.048 270.78 605.64V546.76C270.78 545.352 271.932 544.2 273.34 544.2H319.42C320.828 544.2 321.98 545.352 321.98 546.76V605.64ZM273.34 531.4C264.892 531.4 257.98 538.312 257.98 546.76V605.64C257.98 614.088 264.892 621 273.34 621H319.42C327.868 621 334.78 614.088 334.78 605.64V546.76C334.78 538.312 327.868 531.4 319.42 531.4H273.34Z" fill="url(#paint12_radial_619_337)"/>
<path d="M220.835 543.944C222.243 543.944 223.395 545.096 223.395 546.504V567.368C223.395 568.776 222.243 569.928 220.835 569.928H174.755C166.307 569.928 159.395 576.84 159.395 585.288V608.456V618.44C159.395 619.848 160.547 621 161.955 621H171.939H233.379C234.787 621 235.939 619.848 235.939 618.44V611.016C235.939 609.608 234.787 608.456 233.379 608.456H174.499C173.091 608.456 171.939 607.304 171.939 605.896V585.032C171.939 583.624 173.091 582.472 174.499 582.472H220.579C229.155 582.472 235.939 575.56 235.939 567.112V546.76C235.939 538.312 229.155 531.4 220.579 531.4H174.499C173.091 531.4 171.939 532.552 171.939 533.96V541.384C171.939 542.792 173.091 543.944 174.499 543.944H220.835ZM289.98 580.04C289.98 581.448 291.132 582.6 292.54 582.6H300.22C301.628 582.6 302.78 581.448 302.78 580.04V572.36C302.78 570.952 301.628 569.8 300.22 569.8H292.54C291.132 569.8 289.98 570.952 289.98 572.36V580.04ZM321.98 605.64C321.98 607.048 320.828 608.2 319.42 608.2H273.34C271.932 608.2 270.78 607.048 270.78 605.64V546.76C270.78 545.352 271.932 544.2 273.34 544.2H319.42C320.828 544.2 321.98 545.352 321.98 546.76V605.64ZM273.34 531.4C264.892 531.4 257.98 538.312 257.98 546.76V605.64C257.98 614.088 264.892 621 273.34 621H319.42C327.868 621 334.78 614.088 334.78 605.64V546.76C334.78 538.312 327.868 531.4 319.42 531.4H273.34Z" fill="url(#paint13_linear_619_337)" fill-opacity="0.2"/>
<path d="M220.835 543.944C222.243 543.944 223.395 545.096 223.395 546.504V567.368C223.395 568.776 222.243 569.928 220.835 569.928H174.755C166.307 569.928 159.395 576.84 159.395 585.288V608.456V618.44C159.395 619.848 160.547 621 161.955 621H171.939H233.379C234.787 621 235.939 619.848 235.939 618.44V611.016C235.939 609.608 234.787 608.456 233.379 608.456H174.499C173.091 608.456 171.939 607.304 171.939 605.896V585.032C171.939 583.624 173.091 582.472 174.499 582.472H220.579C229.155 582.472 235.939 575.56 235.939 567.112V546.76C235.939 538.312 229.155 531.4 220.579 531.4H174.499C173.091 531.4 171.939 532.552 171.939 533.96V541.384C171.939 542.792 173.091 543.944 174.499 543.944H220.835ZM289.98 580.04C289.98 581.448 291.132 582.6 292.54 582.6H300.22C301.628 582.6 302.78 581.448 302.78 580.04V572.36C302.78 570.952 301.628 569.8 300.22 569.8H292.54C291.132 569.8 289.98 570.952 289.98 572.36V580.04ZM321.98 605.64C321.98 607.048 320.828 608.2 319.42 608.2H273.34C271.932 608.2 270.78 607.048 270.78 605.64V546.76C270.78 545.352 271.932 544.2 273.34 544.2H319.42C320.828 544.2 321.98 545.352 321.98 546.76V605.64ZM273.34 531.4C264.892 531.4 257.98 538.312 257.98 546.76V605.64C257.98 614.088 264.892 621 273.34 621H319.42C327.868 621 334.78 614.088 334.78 605.64V546.76C334.78 538.312 327.868 531.4 319.42 531.4H273.34Z" fill="url(#paint14_radial_619_337)" fill-opacity="0.2"/>
<path d="M220.835 543.944C222.243 543.944 223.395 545.096 223.395 546.504V567.368C223.395 568.776 222.243 569.928 220.835 569.928H174.755C166.307 569.928 159.395 576.84 159.395 585.288V608.456V618.44C159.395 619.848 160.547 621 161.955 621H171.939H233.379C234.787 621 235.939 619.848 235.939 618.44V611.016C235.939 609.608 234.787 608.456 233.379 608.456H174.499C173.091 608.456 171.939 607.304 171.939 605.896V585.032C171.939 583.624 173.091 582.472 174.499 582.472H220.579C229.155 582.472 235.939 575.56 235.939 567.112V546.76C235.939 538.312 229.155 531.4 220.579 531.4H174.499C173.091 531.4 171.939 532.552 171.939 533.96V541.384C171.939 542.792 173.091 543.944 174.499 543.944H220.835ZM289.98 580.04C289.98 581.448 291.132 582.6 292.54 582.6H300.22C301.628 582.6 302.78 581.448 302.78 580.04V572.36C302.78 570.952 301.628 569.8 300.22 569.8H292.54C291.132 569.8 289.98 570.952 289.98 572.36V580.04ZM321.98 605.64C321.98 607.048 320.828 608.2 319.42 608.2H273.34C271.932 608.2 270.78 607.048 270.78 605.64V546.76C270.78 545.352 271.932 544.2 273.34 544.2H319.42C320.828 544.2 321.98 545.352 321.98 546.76V605.64ZM273.34 531.4C264.892 531.4 257.98 538.312 257.98 546.76V605.64C257.98 614.088 264.892 621 273.34 621H319.42C327.868 621 334.78 614.088 334.78 605.64V546.76C334.78 538.312 327.868 531.4 319.42 531.4H273.34Z" fill="url(#paint15_linear_619_337)" fill-opacity="0.2"/>
</g>
<g filter="url(#filter4_d_619_337)">
<path d="M68.1875 49.24C68.1875 50.648 67.0355 51.8 65.6275 51.8H19.5475C18.1395 51.8 16.9875 50.648 16.9875 49.24V28.76C16.9875 27.352 18.1395 26.2 19.5475 26.2H65.6275C67.0355 26.2 68.1875 27.352 68.1875 28.76V49.24ZM65.6275 13.4H19.5475C11.0995 13.4 4.1875 20.312 4.1875 28.76V49.24C4.1875 57.688 11.0995 64.6 19.5475 64.6H65.6275C67.0355 64.6 68.1875 65.752 68.1875 67.16V87.64C68.1875 89.048 67.0355 90.2 65.6275 90.2H19.5475C18.1395 90.2 16.9875 91.352 16.9875 92.76V100.44C16.9875 101.848 18.1395 103 19.5475 103H65.6275C74.0755 103 80.9875 96.088 80.9875 87.64V28.76C80.9875 20.312 74.0755 13.4 65.6275 13.4Z" fill="url(#paint16_radial_619_337)"/>
<path d="M68.1875 49.24C68.1875 50.648 67.0355 51.8 65.6275 51.8H19.5475C18.1395 51.8 16.9875 50.648 16.9875 49.24V28.76C16.9875 27.352 18.1395 26.2 19.5475 26.2H65.6275C67.0355 26.2 68.1875 27.352 68.1875 28.76V49.24ZM65.6275 13.4H19.5475C11.0995 13.4 4.1875 20.312 4.1875 28.76V49.24C4.1875 57.688 11.0995 64.6 19.5475 64.6H65.6275C67.0355 64.6 68.1875 65.752 68.1875 67.16V87.64C68.1875 89.048 67.0355 90.2 65.6275 90.2H19.5475C18.1395 90.2 16.9875 91.352 16.9875 92.76V100.44C16.9875 101.848 18.1395 103 19.5475 103H65.6275C74.0755 103 80.9875 96.088 80.9875 87.64V28.76C80.9875 20.312 74.0755 13.4 65.6275 13.4Z" fill="url(#paint17_linear_619_337)" fill-opacity="0.2"/>
<path d="M68.1875 49.24C68.1875 50.648 67.0355 51.8 65.6275 51.8H19.5475C18.1395 51.8 16.9875 50.648 16.9875 49.24V28.76C16.9875 27.352 18.1395 26.2 19.5475 26.2H65.6275C67.0355 26.2 68.1875 27.352 68.1875 28.76V49.24ZM65.6275 13.4H19.5475C11.0995 13.4 4.1875 20.312 4.1875 28.76V49.24C4.1875 57.688 11.0995 64.6 19.5475 64.6H65.6275C67.0355 64.6 68.1875 65.752 68.1875 67.16V87.64C68.1875 89.048 67.0355 90.2 65.6275 90.2H19.5475C18.1395 90.2 16.9875 91.352 16.9875 92.76V100.44C16.9875 101.848 18.1395 103 19.5475 103H65.6275C74.0755 103 80.9875 96.088 80.9875 87.64V28.76C80.9875 20.312 74.0755 13.4 65.6275 13.4Z" fill="url(#paint18_radial_619_337)" fill-opacity="0.2"/>
<path d="M68.1875 49.24C68.1875 50.648 67.0355 51.8 65.6275 51.8H19.5475C18.1395 51.8 16.9875 50.648 16.9875 49.24V28.76C16.9875 27.352 18.1395 26.2 19.5475 26.2H65.6275C67.0355 26.2 68.1875 27.352 68.1875 28.76V49.24ZM65.6275 13.4H19.5475C11.0995 13.4 4.1875 20.312 4.1875 28.76V49.24C4.1875 57.688 11.0995 64.6 19.5475 64.6H65.6275C67.0355 64.6 68.1875 65.752 68.1875 67.16V87.64C68.1875 89.048 67.0355 90.2 65.6275 90.2H19.5475C18.1395 90.2 16.9875 91.352 16.9875 92.76V100.44C16.9875 101.848 18.1395 103 19.5475 103H65.6275C74.0755 103 80.9875 96.088 80.9875 87.64V28.76C80.9875 20.312 74.0755 13.4 65.6275 13.4Z" fill="url(#paint19_linear_619_337)" fill-opacity="0.2"/>
</g>
<g filter="url(#filter5_d_619_337)">
<path d="M1043.41 233.76C1043.41 232.352 1042.26 231.2 1040.85 231.2H1026.77C1025.36 231.2 1024.21 230.048 1024.21 228.64V156.96C1024.21 155.552 1023.06 154.4 1021.65 154.4H994.767C993.359 154.4 992.207 155.552 992.207 156.96V164.64C992.207 166.048 993.359 167.2 994.767 167.2H1008.85C1010.26 167.2 1011.41 168.352 1011.41 169.76V228.64C1011.41 230.048 1010.26 231.2 1008.85 231.2H994.767C993.359 231.2 992.207 232.352 992.207 233.76V241.44C992.207 242.848 993.359 244 994.767 244H1040.85C1042.26 244 1043.41 242.848 1043.41 241.44V233.76ZM1141.97 195.36C1141.97 193.952 1140.82 192.8 1139.41 192.8H1131.73C1130.32 192.8 1129.17 191.648 1129.17 190.24V156.96C1129.17 155.552 1128.02 154.4 1126.61 154.4H1118.93C1117.52 154.4 1116.37 155.552 1116.37 156.96V190.24C1116.37 191.648 1115.22 192.8 1113.81 192.8H1080.53C1079.12 192.8 1077.97 191.648 1077.97 190.24V156.96C1077.97 155.552 1076.82 154.4 1075.41 154.4H1067.73C1066.32 154.4 1065.17 155.552 1065.17 156.96V203.04C1065.17 204.448 1066.32 205.6 1067.73 205.6H1113.81C1115.22 205.6 1116.37 206.752 1116.37 208.16V241.44C1116.37 242.848 1117.52 244 1118.93 244H1126.61C1128.02 244 1129.17 242.848 1129.17 241.44V208.16C1129.17 206.752 1130.32 205.6 1131.73 205.6H1139.41C1140.82 205.6 1141.97 204.448 1141.97 203.04V195.36Z" fill="url(#paint20_radial_619_337)"/>
<path d="M1043.41 233.76C1043.41 232.352 1042.26 231.2 1040.85 231.2H1026.77C1025.36 231.2 1024.21 230.048 1024.21 228.64V156.96C1024.21 155.552 1023.06 154.4 1021.65 154.4H994.767C993.359 154.4 992.207 155.552 992.207 156.96V164.64C992.207 166.048 993.359 167.2 994.767 167.2H1008.85C1010.26 167.2 1011.41 168.352 1011.41 169.76V228.64C1011.41 230.048 1010.26 231.2 1008.85 231.2H994.767C993.359 231.2 992.207 232.352 992.207 233.76V241.44C992.207 242.848 993.359 244 994.767 244H1040.85C1042.26 244 1043.41 242.848 1043.41 241.44V233.76ZM1141.97 195.36C1141.97 193.952 1140.82 192.8 1139.41 192.8H1131.73C1130.32 192.8 1129.17 191.648 1129.17 190.24V156.96C1129.17 155.552 1128.02 154.4 1126.61 154.4H1118.93C1117.52 154.4 1116.37 155.552 1116.37 156.96V190.24C1116.37 191.648 1115.22 192.8 1113.81 192.8H1080.53C1079.12 192.8 1077.97 191.648 1077.97 190.24V156.96C1077.97 155.552 1076.82 154.4 1075.41 154.4H1067.73C1066.32 154.4 1065.17 155.552 1065.17 156.96V203.04C1065.17 204.448 1066.32 205.6 1067.73 205.6H1113.81C1115.22 205.6 1116.37 206.752 1116.37 208.16V241.44C1116.37 242.848 1117.52 244 1118.93 244H1126.61C1128.02 244 1129.17 242.848 1129.17 241.44V208.16C1129.17 206.752 1130.32 205.6 1131.73 205.6H1139.41C1140.82 205.6 1141.97 204.448 1141.97 203.04V195.36Z" fill="url(#paint21_linear_619_337)" fill-opacity="0.2"/>
<path d="M1043.41 233.76C1043.41 232.352 1042.26 231.2 1040.85 231.2H1026.77C1025.36 231.2 1024.21 230.048 1024.21 228.64V156.96C1024.21 155.552 1023.06 154.4 1021.65 154.4H994.767C993.359 154.4 992.207 155.552 992.207 156.96V164.64C992.207 166.048 993.359 167.2 994.767 167.2H1008.85C1010.26 167.2 1011.41 168.352 1011.41 169.76V228.64C1011.41 230.048 1010.26 231.2 1008.85 231.2H994.767C993.359 231.2 992.207 232.352 992.207 233.76V241.44C992.207 242.848 993.359 244 994.767 244H1040.85C1042.26 244 1043.41 242.848 1043.41 241.44V233.76ZM1141.97 195.36C1141.97 193.952 1140.82 192.8 1139.41 192.8H1131.73C1130.32 192.8 1129.17 191.648 1129.17 190.24V156.96C1129.17 155.552 1128.02 154.4 1126.61 154.4H1118.93C1117.52 154.4 1116.37 155.552 1116.37 156.96V190.24C1116.37 191.648 1115.22 192.8 1113.81 192.8H1080.53C1079.12 192.8 1077.97 191.648 1077.97 190.24V156.96C1077.97 155.552 1076.82 154.4 1075.41 154.4H1067.73C1066.32 154.4 1065.17 155.552 1065.17 156.96V203.04C1065.17 204.448 1066.32 205.6 1067.73 205.6H1113.81C1115.22 205.6 1116.37 206.752 1116.37 208.16V241.44C1116.37 242.848 1117.52 244 1118.93 244H1126.61C1128.02 244 1129.17 242.848 1129.17 241.44V208.16C1129.17 206.752 1130.32 205.6 1131.73 205.6H1139.41C1140.82 205.6 1141.97 204.448 1141.97 203.04V195.36Z" fill="url(#paint22_radial_619_337)" fill-opacity="0.2"/>
<path d="M1043.41 233.76C1043.41 232.352 1042.26 231.2 1040.85 231.2H1026.77C1025.36 231.2 1024.21 230.048 1024.21 228.64V156.96C1024.21 155.552 1023.06 154.4 1021.65 154.4H994.767C993.359 154.4 992.207 155.552 992.207 156.96V164.64C992.207 166.048 993.359 167.2 994.767 167.2H1008.85C1010.26 167.2 1011.41 168.352 1011.41 169.76V228.64C1011.41 230.048 1010.26 231.2 1008.85 231.2H994.767C993.359 231.2 992.207 232.352 992.207 233.76V241.44C992.207 242.848 993.359 244 994.767 244H1040.85C1042.26 244 1043.41 242.848 1043.41 241.44V233.76ZM1141.97 195.36C1141.97 193.952 1140.82 192.8 1139.41 192.8H1131.73C1130.32 192.8 1129.17 191.648 1129.17 190.24V156.96C1129.17 155.552 1128.02 154.4 1126.61 154.4H1118.93C1117.52 154.4 1116.37 155.552 1116.37 156.96V190.24C1116.37 191.648 1115.22 192.8 1113.81 192.8H1080.53C1079.12 192.8 1077.97 191.648 1077.97 190.24V156.96C1077.97 155.552 1076.82 154.4 1075.41 154.4H1067.73C1066.32 154.4 1065.17 155.552 1065.17 156.96V203.04C1065.17 204.448 1066.32 205.6 1067.73 205.6H1113.81C1115.22 205.6 1116.37 206.752 1116.37 208.16V241.44C1116.37 242.848 1117.52 244 1118.93 244H1126.61C1128.02 244 1129.17 242.848 1129.17 241.44V208.16C1129.17 206.752 1130.32 205.6 1131.73 205.6H1139.41C1140.82 205.6 1141.97 204.448 1141.97 203.04V195.36Z" fill="url(#paint23_linear_619_337)" fill-opacity="0.2"/>
</g>
<defs>
<filter id="filter0_d_619_337" x="999.208" y="1705.4" width="157.504" height="97.6" filterUnits="userSpaceOnUse" color-interpolation-filters="sRGB">
<feFlood flood-opacity="0" result="BackgroundImageFix"/>
<feColorMatrix in="SourceAlpha" type="matrix" values="0 0 0 0 0 0 0 0 0 0 0 0 0 0 0 0 0 0 127 0" result="hardAlpha"/>
<feOffset dy="4"/>
<feGaussianBlur stdDeviation="2"/>
<feComposite in2="hardAlpha" operator="out"/>
<feColorMatrix type="matrix" values="0 0 0 0 0 0 0 0 0 0 0 0 0 0 0 0 0 0 0.25 0"/>
<feBlend mode="normal" in2="BackgroundImageFix" result="effect1_dropShadow_619_337"/>
<feBlend mode="normal" in="SourceGraphic" in2="effect1_dropShadow_619_337" result="shape"/>
</filter>
<filter id="filter1_d_619_337" x="9" y="1535.4" width="59.2" height="97.6" filterUnits="userSpaceOnUse" color-interpolation-filters="sRGB">
<feFlood flood-opacity="0" result="BackgroundImageFix"/>
<feColorMatrix in="SourceAlpha" type="matrix" values="0 0 0 0 0 0 0 0 0 0 0 0 0 0 0 0 0 0 127 0" result="hardAlpha"/>
<feOffset dy="4"/>
<feGaussianBlur stdDeviation="2"/>
<feComposite in2="hardAlpha" operator="out"/>
<feColorMatrix type="matrix" values="0 0 0 0 0 0 0 0 0 0 0 0 0 0 0 0 0 0 0.25 0"/>
<feBlend mode="normal" in2="BackgroundImageFix" result="effect1_dropShadow_619_337"/>
<feBlend mode="normal" in="SourceGraphic" in2="effect1_dropShadow_619_337" result="shape"/>
</filter>
<filter id="filter2_d_619_337" x="217.188" y="1225.4" width="84.8" height="97.6" filterUnits="userSpaceOnUse" color-interpolation-filters="sRGB">
<feFlood flood-opacity="0" result="BackgroundImageFix"/>
<feColorMatrix in="SourceAlpha" type="matrix" values="0 0 0 0 0 0 0 0 0 0 0 0 0 0 0 0 0 0 127 0" result="hardAlpha"/>
<feOffset dy="4"/>
<feGaussianBlur stdDeviation="2"/>
<feComposite in2="hardAlpha" operator="out"/>
<feColorMatrix type="matrix" values="0 0 0 0 0 0 0 0 0 0 0 0 0 0 0 0 0 0 0.25 0"/>
<feBlend mode="normal" in2="BackgroundImageFix" result="effect1_dropShadow_619_337"/>
<feBlend mode="normal" in="SourceGraphic" in2="effect1_dropShadow_619_337" result="shape"/>
</filter>
<filter id="filter3_d_619_337" x="155.395" y="531.4" width="183.385" height="97.6001" filterUnits="userSpaceOnUse" color-interpolation-filters="sRGB">
<feFlood flood-opacity="0" result="BackgroundImageFix"/>
<feColorMatrix in="SourceAlpha" type="matrix" values="0 0 0 0 0 0 0 0 0 0 0 0 0 0 0 0 0 0 127 0" result="hardAlpha"/>
<feOffset dy="4"/>
<feGaussianBlur stdDeviation="2"/>
<feComposite in2="hardAlpha" operator="out"/>
<feColorMatrix type="matrix" values="0 0 0 0 0 0 0 0 0 0 0 0 0 0 0 0 0 0 0.25 0"/>
<feBlend mode="normal" in2="BackgroundImageFix" result="effect1_dropShadow_619_337"/>
<feBlend mode="normal" in="SourceGraphic" in2="effect1_dropShadow_619_337" result="shape"/>
</filter>
<filter id="filter4_d_619_337" x="0.1875" y="13.3999" width="84.8" height="97.6001" filterUnits="userSpaceOnUse" color-interpolation-filters="sRGB">
<feFlood flood-opacity="0" result="BackgroundImageFix"/>
<feColorMatrix in="SourceAlpha" type="matrix" values="0 0 0 0 0 0 0 0 0 0 0 0 0 0 0 0 0 0 127 0" result="hardAlpha"/>
<feOffset dy="4"/>
<feGaussianBlur stdDeviation="2"/>
<feComposite in2="hardAlpha" operator="out"/>
<feColorMatrix type="matrix" values="0 0 0 0 0 0 0 0 0 0 0 0 0 0 0 0 0 0 0.25 0"/>
<feBlend mode="normal" in2="BackgroundImageFix" result="effect1_dropShadow_619_337"/>
<feBlend mode="normal" in="SourceGraphic" in2="effect1_dropShadow_619_337" result="shape"/>
</filter>
<filter id="filter5_d_619_337" x="988.208" y="154.4" width="157.76" height="97.6001" filterUnits="userSpaceOnUse" color-interpolation-filters="sRGB">
<feFlood flood-opacity="0" result="BackgroundImageFix"/>
<feColorMatrix in="SourceAlpha" type="matrix" values="0 0 0 0 0 0 0 0 0 0 0 0 0 0 0 0 0 0 127 0" result="hardAlpha"/>
<feOffset dy="4"/>
<feGaussianBlur stdDeviation="2"/>
<feComposite in2="hardAlpha" operator="out"/>
<feColorMatrix type="matrix" values="0 0 0 0 0 0 0 0 0 0 0 0 0 0 0 0 0 0 0.25 0"/>
<feBlend mode="normal" in2="BackgroundImageFix" result="effect1_dropShadow_619_337"/>
<feBlend mode="normal" in="SourceGraphic" in2="effect1_dropShadow_619_337" result="shape"/>
</filter>
<radialGradient id="paint0_radial_619_337" cx="0" cy="0" r="1" gradientUnits="userSpaceOnUse" gradientTransform="translate(1084.5 1762.5) rotate(90) scale(70.5 81.5)">
<stop stop-color="#F0AFBB"/>
<stop offset="1" stop-color="#FF5C79"/>
</radialGradient>
<linearGradient id="paint1_linear_619_337" x1="1021.45" y1="1654.75" x2="1147.28" y2="1737.29" gradientUnits="userSpaceOnUse">
<stop stop-color="#DB80FF"/>
<stop offset="1" stop-color="#FFEAEE" stop-opacity="0.6"/>
</linearGradient>
<radialGradient id="paint2_radial_619_337" cx="0" cy="0" r="1" gradientUnits="userSpaceOnUse" gradientTransform="translate(1130.57 1783.44) rotate(-110.967) scale(85.9786 141.518)">
<stop stop-color="#FFEAEE"/>
<stop offset="1" stop-color="#CC1838"/>
</radialGradient>
<linearGradient id="paint3_linear_619_337" x1="1140.46" y1="1790.7" x2="1009.18" y2="1780.96" gradientUnits="userSpaceOnUse">
<stop stop-color="#D5425C" stop-opacity="0.8"/>
<stop offset="1" stop-color="#FFEAEE" stop-opacity="0.52"/>
</linearGradient>
<radialGradient id="paint4_radial_619_337" cx="0" cy="0" r="1" gradientUnits="userSpaceOnUse" gradientTransform="translate(45 1592.5) rotate(90) scale(70.5 32)">
<stop stop-color="#F0AFBB"/>
<stop offset="1" stop-color="#FF5C79"/>
</radialGradient>
<linearGradient id="paint5_linear_619_337" x1="20.2438" y1="1484.75" x2="86.5109" y2="1501.82" gradientUnits="userSpaceOnUse">
<stop stop-color="#DB80FF"/>
<stop offset="1" stop-color="#FFEAEE" stop-opacity="0.6"/>
</linearGradient>
<radialGradient id="paint6_radial_619_337" cx="0" cy="0" r="1" gradientUnits="userSpaceOnUse" gradientTransform="translate(63.0896 1613.44) rotate(-98.5564) scale(81.1895 58.8431)">
<stop stop-color="#FFEAEE"/>
<stop offset="1" stop-color="#CC1838"/>
</radialGradient>
<linearGradient id="paint7_linear_619_337" x1="66.9701" y1="1620.7" x2="15.1852" y2="1619.19" gradientUnits="userSpaceOnUse">
<stop stop-color="#D5425C" stop-opacity="0.8"/>
<stop offset="1" stop-color="#FFEAEE" stop-opacity="0.52"/>
</linearGradient>
<radialGradient id="paint8_radial_619_337" cx="0" cy="0" r="1" gradientUnits="userSpaceOnUse" gradientTransform="translate(266 1282.5) rotate(90) scale(70.5 45)">
<stop stop-color="#F0AFBB"/>
<stop offset="1" stop-color="#FF5C79"/>
</radialGradient>
<linearGradient id="paint9_linear_619_337" x1="231.187" y1="1174.75" x2="319.033" y2="1206.57" gradientUnits="userSpaceOnUse">
<stop stop-color="#DB80FF"/>
<stop offset="1" stop-color="#FFEAEE" stop-opacity="0.6"/>
</linearGradient>
<radialGradient id="paint10_radial_619_337" cx="0" cy="0" r="1" gradientUnits="userSpaceOnUse" gradientTransform="translate(291.438 1303.44) rotate(-101.947) scale(82.0632 81.8671)">
<stop stop-color="#FFEAEE"/>
<stop offset="1" stop-color="#CC1838"/>
</radialGradient>
<linearGradient id="paint11_linear_619_337" x1="296.896" y1="1310.7" x2="224.133" y2="1307.72" gradientUnits="userSpaceOnUse">
<stop stop-color="#D5425C" stop-opacity="0.8"/>
<stop offset="1" stop-color="#FFEAEE" stop-opacity="0.52"/>
</linearGradient>
<radialGradient id="paint12_radial_619_337" cx="0" cy="0" r="1" gradientUnits="userSpaceOnUse" gradientTransform="translate(253.5 588.5) rotate(90) scale(70.5 94.5)">
<stop stop-color="#F0AFBB"/>
<stop offset="1" stop-color="#FF5C79"/>
</radialGradient>
<linearGradient id="paint13_linear_619_337" x1="180.392" y1="480.751" x2="312.596" y2="581.298" gradientUnits="userSpaceOnUse">
<stop stop-color="#DB80FF"/>
<stop offset="1" stop-color="#FFEAEE" stop-opacity="0.6"/>
</linearGradient>
<radialGradient id="paint14_radial_619_337" cx="0" cy="0" r="1" gradientUnits="userSpaceOnUse" gradientTransform="translate(306.921 609.44) rotate(-113.957) scale(87.8541 160.589)">
<stop stop-color="#FFEAEE"/>
<stop offset="1" stop-color="#CC1838"/>
</radialGradient>
<linearGradient id="paint15_linear_619_337" x1="318.381" y1="616.7" x2="166.449" y2="603.625" gradientUnits="userSpaceOnUse">
<stop stop-color="#D5425C" stop-opacity="0.8"/>
<stop offset="1" stop-color="#FFEAEE" stop-opacity="0.52"/>
</linearGradient>
<radialGradient id="paint16_radial_619_337" cx="0" cy="0" r="1" gradientUnits="userSpaceOnUse" gradientTransform="translate(49 70.5) rotate(90) scale(70.5 45)">
<stop stop-color="#F0AFBB"/>
<stop offset="1" stop-color="#FF5C79"/>
</radialGradient>
<linearGradient id="paint17_linear_619_337" x1="14.1866" y1="-37.2492" x2="102.033" y2="-5.43435" gradientUnits="userSpaceOnUse">
<stop stop-color="#DB80FF"/>
<stop offset="1" stop-color="#FFEAEE" stop-opacity="0.6"/>
</linearGradient>
<radialGradient id="paint18_radial_619_337" cx="0" cy="0" r="1" gradientUnits="userSpaceOnUse" gradientTransform="translate(74.4384 91.4395) rotate(-101.947) scale(82.0632 81.8671)">
<stop stop-color="#FFEAEE"/>
<stop offset="1" stop-color="#CC1838"/>
</radialGradient>
<linearGradient id="paint19_linear_619_337" x1="79.8955" y1="98.7" x2="7.13332" y2="95.7182" gradientUnits="userSpaceOnUse">
<stop stop-color="#D5425C" stop-opacity="0.8"/>
<stop offset="1" stop-color="#FFEAEE" stop-opacity="0.52"/>
</linearGradient>
<radialGradient id="paint20_radial_619_337" cx="0" cy="0" r="1" gradientUnits="userSpaceOnUse" gradientTransform="translate(1073.5 211.5) rotate(90) scale(70.5 81.5)">
<stop stop-color="#F0AFBB"/>
<stop offset="1" stop-color="#FF5C79"/>
</radialGradient>
<linearGradient id="paint21_linear_619_337" x1="1010.45" y1="103.751" x2="1136.28" y2="186.286" gradientUnits="userSpaceOnUse">
<stop stop-color="#DB80FF"/>
<stop offset="1" stop-color="#FFEAEE" stop-opacity="0.6"/>
</linearGradient>
<radialGradient id="paint22_radial_619_337" cx="0" cy="0" r="1" gradientUnits="userSpaceOnUse" gradientTransform="translate(1119.57 232.44) rotate(-110.967) scale(85.9786 141.518)">
<stop stop-color="#FFEAEE"/>
<stop offset="1" stop-color="#CC1838"/>
</radialGradient>
<linearGradient id="paint23_linear_619_337" x1="1129.46" y1="239.7" x2="998.177" y2="229.956" gradientUnits="userSpaceOnUse">
<stop stop-color="#D5425C" stop-opacity="0.8"/>
<stop offset="1" stop-color="#FFEAEE" stop-opacity="0.52"/>
</linearGradient>
</defs>
</svg>
