<svg width="41" height="40" viewBox="0 0 41 40" fill="none" xmlns="http://www.w3.org/2000/svg">
<path d="M13.8335 9.99998V8.66665C13.8335 5.71665 13.8335 3.33331 19.1668 3.33331H21.8335C27.1668 3.33331 27.1668 5.71665 27.1668 8.66665V9.99998M13.8335 36.6666H27.1668C33.8668 36.6666 35.0668 33.9833 35.4168 30.7166L36.6668 17.3833C37.1168 13.3166 35.9501 9.99998 28.8335 9.99998H12.1668C5.05012 9.99998 3.88345 13.3166 4.33345 17.3833L5.58345 30.7166C5.93345 33.9833 7.13345 36.6666 13.8335 36.6666Z" stroke="white" stroke-width="1.5" stroke-miterlimit="10" stroke-linecap="round" stroke-linejoin="round"/>
<path d="M36.5834 18.3333C32.8269 21.0614 28.4404 22.7931 23.8334 23.3666M4.8667 18.7833C8.6167 21.35 12.85 22.9 17.1667 23.3833M23.8334 21.6666V23.3666C23.8334 25.1833 23.8167 26.6666 20.5 26.6666C17.2 26.6666 17.1667 25.2 17.1667 23.3833V21.6666C17.1667 20 17.1667 20 18.8334 20H22.1667C23.8334 20 23.8334 20 23.8334 21.6666Z" stroke="white" stroke-width="1.5" stroke-miterlimit="10" stroke-linecap="round" stroke-linejoin="round"/>
</svg>
