<svg width="40" height="40" viewBox="0 0 40 40" fill="none" xmlns="http://www.w3.org/2000/svg">
<path d="M3.33325 36.6666H36.6666M5.18325 36.6666V21.6666C5.18325 18.9 7.66659 16.6666 10.7333 16.6666H29.2499C32.3166 16.6666 34.7999 18.9 34.7999 21.6666V36.6666M9.26659 16.6666V11.95C9.26659 9.94998 11.0666 8.33331 13.2999 8.33331H26.7166C28.9333 8.33331 30.7333 9.94998 30.7333 11.95V16.6666" stroke="white" stroke-width="1.5" stroke-linecap="round" stroke-linejoin="round"/>
<path d="M5.8833 23.3L6.49997 23.3166C7.7333 23.3333 8.71663 24.3333 8.71663 25.5666V26.1166C8.71663 26.7134 8.95369 27.2857 9.37564 27.7076C9.7976 28.1296 10.3699 28.3666 10.9666 28.3666C11.5634 28.3666 12.1357 28.1296 12.5576 27.7076C12.9796 27.2857 13.2166 26.7134 13.2166 26.1166V25.6C13.2166 25.0032 13.4537 24.4309 13.8756 24.009C14.2976 23.587 14.8699 23.35 15.4666 23.35C16.0634 23.35 16.6357 23.587 17.0576 24.009C17.4796 24.4309 17.7166 25.0032 17.7166 25.6V26.1166C17.7166 26.7134 17.9537 27.2857 18.3756 27.7076C18.7976 28.1296 19.3699 28.3666 19.9666 28.3666C20.5634 28.3666 21.1357 28.1296 21.5576 27.7076C21.9796 27.2857 22.2166 26.7134 22.2166 26.1166V25.6C22.2166 25.0032 22.4537 24.4309 22.8756 24.009C23.2976 23.587 23.8699 23.35 24.4666 23.35C25.0634 23.35 25.6357 23.587 26.0576 24.009C26.4796 24.4309 26.7166 25.0032 26.7166 25.6V26.1166C26.7166 26.7134 26.9537 27.2857 27.3756 27.7076C27.7976 28.1296 28.3699 28.3666 28.9666 28.3666C29.5634 28.3666 30.1357 28.1296 30.5576 27.7076C30.9796 27.2857 31.2166 26.7134 31.2166 26.1166V25.6C31.2166 24.3666 32.2166 23.35 33.4666 23.35H34.2166M13.3333 8.33331V4.99998M26.6666 8.33331V4.99998M20 8.33331V3.33331" stroke="white" stroke-width="1.5" stroke-linecap="round" stroke-linejoin="round"/>
</svg>
