<svg width="40" height="40" viewBox="0 0 40 40" fill="none" xmlns="http://www.w3.org/2000/svg">
<path d="M30.7834 28.05L31.4334 33.3166C31.6001 34.7 30.1167 35.6666 28.9334 34.95L21.9501 30.8C21.1834 30.8 20.4334 30.75 19.7001 30.65C20.9634 29.1855 21.661 27.3174 21.6667 25.3833C21.6667 20.65 17.5667 16.8166 12.5001 16.8166C10.5667 16.8166 8.7834 17.3666 7.30007 18.3333C7.25007 17.9166 7.2334 17.5 7.2334 17.0666C7.2334 9.48331 13.8167 3.33331 21.9501 3.33331C30.0834 3.33331 36.6667 9.48331 36.6667 17.0666C36.6667 21.5666 34.3501 25.55 30.7834 28.05Z" stroke="white" stroke-width="1.5" stroke-linecap="round" stroke-linejoin="round"/>
<path d="M21.6666 25.3833C21.6666 27.3666 20.9333 29.2 19.6999 30.65C18.0499 32.65 15.4333 33.9333 12.4999 33.9333L8.14992 36.5166C7.41659 36.9666 6.48325 36.35 6.58325 35.5L6.99992 32.2166C4.76658 30.6666 3.33325 28.1833 3.33325 25.3833C3.33325 22.45 4.89992 19.8667 7.29992 18.3333C8.78325 17.3667 10.5666 16.8167 12.4999 16.8167C17.5666 16.8167 21.6666 20.65 21.6666 25.3833Z" stroke="white" stroke-width="1.5" stroke-linecap="round" stroke-linejoin="round"/>
</svg>
