<svg width="40" height="41" viewBox="0 0 40 41" fill="none" xmlns="http://www.w3.org/2000/svg">
<path d="M8.33333 17.1667C6.5 17.1667 5 18.6667 5 20.5C5 22.3334 6.5 23.8334 8.33333 23.8334C10.1667 23.8334 11.6667 22.3334 11.6667 20.5C11.6667 18.6667 10.1667 17.1667 8.33333 17.1667ZM31.6667 17.1667C29.8333 17.1667 28.3333 18.6667 28.3333 20.5C28.3333 22.3334 29.8333 23.8334 31.6667 23.8334C33.5 23.8334 35 22.3334 35 20.5C35 18.6667 33.5 17.1667 31.6667 17.1667ZM20 17.1667C18.1667 17.1667 16.6667 18.6667 16.6667 20.5C16.6667 22.3334 18.1667 23.8334 20 23.8334C21.8333 23.8334 23.3333 22.3334 23.3333 20.5C23.3333 18.6667 21.8333 17.1667 20 17.1667Z" stroke="white" stroke-width="1.5"/>
</svg>
