<svg width="320" height="478" viewBox="0 0 320 478" fill="none" xmlns="http://www.w3.org/2000/svg">
<path d="M247.273 476.5C246.455 469.833 239.536 465.053 231.762 465.053C223.987 465.053 217.068 469.833 216.25 476.5H200.049C199.076 459.052 181.208 445.628 160 445.628C138.792 445.628 120.924 459.052 119.951 476.5H103.316C102.499 469.833 95.5797 465.053 87.8049 465.053C80.03 465.053 73.1109 469.833 72.2934 476.5H52.1511C51.3336 469.833 44.4144 465.053 36.6396 465.053C28.8646 465.053 21.9456 469.833 21.1281 476.5H1.5V1.5H21.1281C21.9456 8.16654 28.8646 12.947 36.6396 12.947C44.4144 12.947 51.3335 8.16655 52.1511 1.5H72.2934C73.1109 8.16655 80.03 12.947 87.8049 12.947C95.5797 12.947 102.499 8.16655 103.316 1.5H119.951C120.924 18.949 138.792 32.3723 160 32.3723C181.208 32.3723 199.076 18.949 200.049 1.5H216.25C217.068 8.16655 223.987 12.947 231.762 12.947C239.536 12.947 246.455 8.16655 247.273 1.5H267.415C268.233 8.16655 275.152 12.947 282.927 12.947C290.702 12.947 297.621 8.16655 298.438 1.5H318.5V476.5H298.438C297.621 469.833 290.702 465.053 282.927 465.053C275.152 465.053 268.233 469.833 267.415 476.5H247.273Z" stroke="url(#paint0_radial_81_398)" stroke-width="3"/>
<path d="M247.273 476.5C246.455 469.833 239.536 465.053 231.762 465.053C223.987 465.053 217.068 469.833 216.25 476.5H200.049C199.076 459.052 181.208 445.628 160 445.628C138.792 445.628 120.924 459.052 119.951 476.5H103.316C102.499 469.833 95.5797 465.053 87.8049 465.053C80.03 465.053 73.1109 469.833 72.2934 476.5H52.1511C51.3336 469.833 44.4144 465.053 36.6396 465.053C28.8646 465.053 21.9456 469.833 21.1281 476.5H1.5V1.5H21.1281C21.9456 8.16654 28.8646 12.947 36.6396 12.947C44.4144 12.947 51.3335 8.16655 52.1511 1.5H72.2934C73.1109 8.16655 80.03 12.947 87.8049 12.947C95.5797 12.947 102.499 8.16655 103.316 1.5H119.951C120.924 18.949 138.792 32.3723 160 32.3723C181.208 32.3723 199.076 18.949 200.049 1.5H216.25C217.068 8.16655 223.987 12.947 231.762 12.947C239.536 12.947 246.455 8.16655 247.273 1.5H267.415C268.233 8.16655 275.152 12.947 282.927 12.947C290.702 12.947 297.621 8.16655 298.438 1.5H318.5V476.5H298.438C297.621 469.833 290.702 465.053 282.927 465.053C275.152 465.053 268.233 469.833 267.415 476.5H247.273Z" stroke="url(#paint1_linear_81_398)" stroke-opacity="0.2" stroke-width="3"/>
<path d="M247.273 476.5C246.455 469.833 239.536 465.053 231.762 465.053C223.987 465.053 217.068 469.833 216.25 476.5H200.049C199.076 459.052 181.208 445.628 160 445.628C138.792 445.628 120.924 459.052 119.951 476.5H103.316C102.499 469.833 95.5797 465.053 87.8049 465.053C80.03 465.053 73.1109 469.833 72.2934 476.5H52.1511C51.3336 469.833 44.4144 465.053 36.6396 465.053C28.8646 465.053 21.9456 469.833 21.1281 476.5H1.5V1.5H21.1281C21.9456 8.16654 28.8646 12.947 36.6396 12.947C44.4144 12.947 51.3335 8.16655 52.1511 1.5H72.2934C73.1109 8.16655 80.03 12.947 87.8049 12.947C95.5797 12.947 102.499 8.16655 103.316 1.5H119.951C120.924 18.949 138.792 32.3723 160 32.3723C181.208 32.3723 199.076 18.949 200.049 1.5H216.25C217.068 8.16655 223.987 12.947 231.762 12.947C239.536 12.947 246.455 8.16655 247.273 1.5H267.415C268.233 8.16655 275.152 12.947 282.927 12.947C290.702 12.947 297.621 8.16655 298.438 1.5H318.5V476.5H298.438C297.621 469.833 290.702 465.053 282.927 465.053C275.152 465.053 268.233 469.833 267.415 476.5H247.273Z" stroke="url(#paint2_radial_81_398)" stroke-opacity="0.2" stroke-width="3"/>
<path d="M247.273 476.5C246.455 469.833 239.536 465.053 231.762 465.053C223.987 465.053 217.068 469.833 216.25 476.5H200.049C199.076 459.052 181.208 445.628 160 445.628C138.792 445.628 120.924 459.052 119.951 476.5H103.316C102.499 469.833 95.5797 465.053 87.8049 465.053C80.03 465.053 73.1109 469.833 72.2934 476.5H52.1511C51.3336 469.833 44.4144 465.053 36.6396 465.053C28.8646 465.053 21.9456 469.833 21.1281 476.5H1.5V1.5H21.1281C21.9456 8.16654 28.8646 12.947 36.6396 12.947C44.4144 12.947 51.3335 8.16655 52.1511 1.5H72.2934C73.1109 8.16655 80.03 12.947 87.8049 12.947C95.5797 12.947 102.499 8.16655 103.316 1.5H119.951C120.924 18.949 138.792 32.3723 160 32.3723C181.208 32.3723 199.076 18.949 200.049 1.5H216.25C217.068 8.16655 223.987 12.947 231.762 12.947C239.536 12.947 246.455 8.16655 247.273 1.5H267.415C268.233 8.16655 275.152 12.947 282.927 12.947C290.702 12.947 297.621 8.16655 298.438 1.5H318.5V476.5H298.438C297.621 469.833 290.702 465.053 282.927 465.053C275.152 465.053 268.233 469.833 267.415 476.5H247.273Z" stroke="url(#paint3_linear_81_398)" stroke-opacity="0.2" stroke-width="3"/>
<defs>
<radialGradient id="paint0_radial_81_398" cx="0" cy="0" r="1" gradientUnits="userSpaceOnUse" gradientTransform="translate(160 239) rotate(90) scale(239 160)">
<stop stop-color="#F0AFBB"/>
<stop offset="1" stop-color="#FF5C79"/>
</radialGradient>
<linearGradient id="paint1_linear_81_398" x1="36.2189" y1="-126.278" x2="344.982" y2="-8.99615" gradientUnits="userSpaceOnUse">
<stop stop-color="#DB80FF"/>
<stop offset="1" stop-color="#FFEAEE" stop-opacity="0.6"/>
</linearGradient>
<radialGradient id="paint2_radial_81_398" cx="0" cy="0" r="1" gradientUnits="userSpaceOnUse" gradientTransform="translate(250.448 309.987) rotate(-102.512) scale(278.796 290.461)">
<stop stop-color="#FFEAEE"/>
<stop offset="1" stop-color="#CC1838"/>
</radialGradient>
<linearGradient id="paint3_linear_81_398" x1="269.851" y1="334.6" x2="11.1841" y2="323.482" gradientUnits="userSpaceOnUse">
<stop stop-color="#D5425C" stop-opacity="0.8"/>
<stop offset="1" stop-color="#FFEAEE" stop-opacity="0.52"/>
</linearGradient>
</defs>
</svg>
