<svg width="41" height="40" viewBox="0 0 41 40" fill="none" xmlns="http://www.w3.org/2000/svg">
<path d="M25.4999 3.33331V20C25.4999 21.8333 23.9999 23.3333 22.1666 23.3333H3.83325V9.99998C3.83325 6.31665 6.81659 3.33331 10.4999 3.33331H25.4999Z" stroke="white" stroke-width="1.5" stroke-linecap="round" stroke-linejoin="round"/>
<path d="M37.1666 23.3333V28.3333C37.1666 31.1 34.9333 33.3333 32.1666 33.3333H30.4999C30.4999 31.5 28.9999 30 27.1666 30C25.3333 30 23.8333 31.5 23.8333 33.3333H17.1666C17.1666 31.5 15.6666 30 13.8333 30C11.9999 30 10.4999 31.5 10.4999 33.3333H8.83325C6.06659 33.3333 3.83325 31.1 3.83325 28.3333V23.3333H22.1666C23.9999 23.3333 25.4999 21.8333 25.4999 20V8.33331H28.5666C29.7666 8.33331 30.8666 8.98331 31.4666 10.0166L34.3166 15H32.1666C31.2499 15 30.4999 15.75 30.4999 16.6666V21.6666C30.4999 22.5833 31.2499 23.3333 32.1666 23.3333H37.1666Z" stroke="white" stroke-width="1.5" stroke-linecap="round" stroke-linejoin="round"/>
<path d="M13.8333 36.6667C14.7174 36.6667 15.5652 36.3155 16.1904 35.6904C16.8155 35.0652 17.1667 34.2174 17.1667 33.3333C17.1667 32.4493 16.8155 31.6014 16.1904 30.9763C15.5652 30.3512 14.7174 30 13.8333 30C12.9493 30 12.1014 30.3512 11.4763 30.9763C10.8512 31.6014 10.5 32.4493 10.5 33.3333C10.5 34.2174 10.8512 35.0652 11.4763 35.6904C12.1014 36.3155 12.9493 36.6667 13.8333 36.6667V36.6667ZM27.1667 36.6667C28.0507 36.6667 28.8986 36.3155 29.5237 35.6904C30.1488 35.0652 30.5 34.2174 30.5 33.3333C30.5 32.4493 30.1488 31.6014 29.5237 30.9763C28.8986 30.3512 28.0507 30 27.1667 30C26.2826 30 25.4348 30.3512 24.8096 30.9763C24.1845 31.6014 23.8333 32.4493 23.8333 33.3333C23.8333 34.2174 24.1845 35.0652 24.8096 35.6904C25.4348 36.3155 26.2826 36.6667 27.1667 36.6667ZM37.1667 20V23.3333H32.1667C31.25 23.3333 30.5 22.5833 30.5 21.6667V16.6667C30.5 15.75 31.25 15 32.1667 15H34.3167L37.1667 20Z" stroke="white" stroke-width="1.5" stroke-linecap="round" stroke-linejoin="round"/>
</svg>
