<svg width="40" height="41" viewBox="0 0 40 41" fill="none" xmlns="http://www.w3.org/2000/svg">
<path d="M17.9201 28.6V31.9833C17.9201 34.85 15.2534 37.1666 11.9701 37.1666C8.68675 37.1666 6.00342 34.85 6.00342 31.9833V28.6C6.00342 31.4666 8.67008 33.5 11.9701 33.5C15.2534 33.5 17.9201 31.45 17.9201 28.6Z" stroke="white" stroke-width="1.5" stroke-linecap="round" stroke-linejoin="round"/>
<path d="M17.9167 24.0166C17.9167 24.85 17.6834 25.6166 17.2834 26.2833C16.3001 27.9 14.2834 28.9166 11.9501 28.9166C9.61673 28.9166 7.60007 27.8833 6.61673 26.2833C6.21673 25.6166 5.9834 24.85 5.9834 24.0166C5.9834 22.5833 6.65007 21.3 7.71673 20.3666C8.80007 19.4166 10.2834 18.85 11.9334 18.85C13.5834 18.85 15.0667 19.4333 16.1501 20.3666C17.2501 21.2833 17.9167 22.5833 17.9167 24.0166V24.0166Z" stroke="white" stroke-width="1.5" stroke-linecap="round" stroke-linejoin="round"/>
<path d="M17.9201 24.0166V28.6C17.9201 31.4666 15.2534 33.5 11.9701 33.5C8.68675 33.5 6.00342 31.45 6.00342 28.6V24.0166C6.00342 21.15 8.67008 18.8333 11.9701 18.8333C13.6201 18.8333 15.1034 19.4166 16.1868 20.35C17.2534 21.2833 17.9201 22.5833 17.9201 24.0166V24.0166ZM36.6668 18.7833V22.2166C36.6668 23.1333 35.9334 23.8833 35.0001 23.9166H31.7334C29.9334 23.9166 28.2834 22.6 28.1334 20.8C28.0334 19.75 28.4334 18.7666 29.1334 18.0833C29.7501 17.45 30.6001 17.0833 31.5334 17.0833H35.0001C35.9334 17.1166 36.6668 17.8666 36.6668 18.7833Z" stroke="white" stroke-width="1.5" stroke-linecap="round" stroke-linejoin="round"/>
<path d="M3.33325 18V14.6666C3.33325 10.1333 6.06659 6.96665 10.3166 6.43331C10.7499 6.36665 11.1999 6.33331 11.6666 6.33331H26.6666C27.0999 6.33331 27.5166 6.34998 27.9166 6.41665C32.2166 6.91665 34.9999 10.1 34.9999 14.6666V17.0833H31.5333C30.5999 17.0833 29.7499 17.45 29.1333 18.0833C28.4333 18.7666 28.0332 19.75 28.1332 20.8C28.2832 22.6 29.9333 23.9166 31.7333 23.9166H34.9999V26.3333C34.9999 31.3333 31.6666 34.6666 26.6666 34.6666H22.4999" stroke="white" stroke-width="1.5" stroke-linecap="round" stroke-linejoin="round"/>
</svg>
